<?xml version="1.0" encoding="UTF-8" standalone="no"?><svg xmlns="http://www.w3.org/2000/svg" viewBox="0 0 822.74 405.71"><defs><style>.cls-1{fill:#76bc21;}.cls-2{fill:#fff;}</style></defs><g id="Layer_2" data-name="Layer 2"><g id="Layer_1-2" data-name="Layer 1"><path class="cls-1" d="M443.87,81.56h5.88v37.12h-5.88Z"/><path class="cls-1" d="M485.82,81.56h5.94v37.12h-4.51l-21.06-26.2v26.2h-6V81.56h4.56L485.82,108Z"/><path class="cls-1" d="M498.44,86.91V81.56h30.33v5.35H516.63v31.77h-6V86.91Z"/><path class="cls-1" d="M535.45,118.68V81.56h27.26v5.78H541.39v10h20.48v5.52H541.39v10h21.48v5.83Z"/><path class="cls-1" d="M588.49,86.33c-8.75,0-13.69,6.31-13.69,14.16,0,6.79,4,13.37,13.69,13.37a13.28,13.28,0,0,0,9.07-3.29V103H587.22V97.73h15.85V113a18.66,18.66,0,0,1-14.58,6.48c-13.58,0-19.52-9-19.52-18.94,0-10.55,6.84-19.62,19.52-19.62a19.3,19.3,0,0,1,13.74,5.62l-3.72,3.82A14.89,14.89,0,0,0,588.49,86.33Z"/><path class="cls-1" d="M636.86,118.68l-11.3-12.83h-7.85v12.83h-5.94V81.5l17.29.06c8.59,0,13.1,5.88,13.1,12.14,0,5.25-2.76,10.56-10.08,11.56l11.09,12.36.63,1.06Zm-19.15-18.24H629c4.89,0,7.11-3.08,7.11-6.63A6.61,6.61,0,0,0,629.06,87H617.71Z"/><path class="cls-1" d="M656.74,110.89l-3.5,7.79h-6.31l16.65-37.12h6.47l16.66,37.12H680.4l-3.56-7.79Zm2.23-5.41h15.7l-7.85-17.67Z"/><path class="cls-1" d="M685.85,86.91V81.56h30.34v5.35H704.05v31.77h-6V86.91Z"/><path class="cls-1" d="M722.87,118.68V81.56h27.26v5.78H728.81v10h20.48v5.52H728.81v10h21.48v5.83Z"/><path class="cls-1" d="M791.71,100.17c0,9.28-5.72,18.51-18.61,18.51H759V81.56H773.1C785.93,81.56,791.71,90.84,791.71,100.17ZM773.1,113c8.91,0,12.73-6.41,12.73-12.83S782,87.23,773.1,87.23h-8.17V113Z"/><path class="cls-1" d="M443.87,168.09V131h27.26v5.78H449.81v10h20.47v5.52H449.81v10h21.48v5.84Z"/><path class="cls-1" d="M505.65,131h5.94v37.13h-4.51L486,141.88v26.21h-6V131h4.56l21.06,26.41Z"/><path class="cls-1" d="M522,168.09V131H549.3v5.78H528v10h20.47v5.52H528v10h21.48v5.84Z"/><path class="cls-1" d="M583.29,168.09,572,155.25h-7.85v12.84H558.2V130.91l17.3.05c8.59,0,13.1,5.89,13.1,12.15,0,5.25-2.76,10.55-10.08,11.56L589.6,167l.64,1.06Zm-19.14-18.25h11.29c4.88,0,7.11-3.08,7.11-6.63a6.61,6.61,0,0,0-7-6.84H564.15Z"/><path class="cls-1" d="M614.79,135.73c-8.75,0-13.68,6.31-13.68,14.16,0,6.79,4,13.37,13.68,13.37a13.27,13.27,0,0,0,9.07-3.29v-7.53H613.52v-5.3h15.86v15.22a18.72,18.72,0,0,1-14.59,6.47c-13.58,0-19.52-9-19.52-18.94,0-10.55,6.85-19.62,19.52-19.62a19.29,19.29,0,0,1,13.74,5.62l-3.71,3.82A14.93,14.93,0,0,0,614.79,135.73Z"/><path class="cls-1" d="M660.77,131h7.16v.26l-14.74,21.64v15.23h-5.94V152.86l-14.32-21.64V131H640l10.24,16.39Z"/><path class="cls-1" d="M474.31,210.7v7c-2.71,0-5.89-.64-7-4.88-2.39,4-6.68,5.2-10.61,5.2-8.06,0-14.74-2.66-14.74-11.78a8.58,8.58,0,0,1,5.72-7.74c-3.34-1-5-4.62-5-7.53,0-7.85,7.58-11.14,14.16-11.14s13.58,2.44,13.58,10.5h-6.63c0-3.39-3.34-4.56-7.11-4.56-5.52,0-7.21,3-7.21,5.2,0,3.82,4.67,4.82,7.16,4.82H474v5.52H471v5.41C471,208.84,471.92,210.7,474.31,210.7Zm-25.46-4.45c0,4,3.87,5.46,7.74,5.46,2.55,0,7.75-1.33,7.75-5.09v-5.36h-8.06C451.13,201.26,448.85,204,448.85,206.25Z"/><path class="cls-1" d="M443.87,266.89V229.77h27.26v5.78H449.81v10h20.47v5.52H449.81v10h21.48v5.83Z"/><path class="cls-1" d="M505.65,229.77h5.94v37.12h-4.51L486,240.69v26.2h-6V229.77h4.56l21.06,26.41Z"/><path class="cls-1" d="M539.27,234.54c-8.75,0-13.68,6.31-13.68,14.16,0,6.79,4,13.37,13.68,13.37a13.27,13.27,0,0,0,9.07-3.29v-7.53H538v-5.31h15.86v15.22a18.68,18.68,0,0,1-14.59,6.48c-13.57,0-19.52-9-19.52-18.94,0-10.55,6.85-19.62,19.52-19.62A19.29,19.29,0,0,1,553,234.7l-3.71,3.82A14.93,14.93,0,0,0,539.27,234.54Z"/><path class="cls-1" d="M562.55,229.77h5.89v37.12h-5.89Z"/><path class="cls-1" d="M604.5,229.77h6v37.12h-4.51l-21.06-26.2v26.2h-6V229.77h4.56l21,26.41Z"/><path class="cls-1" d="M620.89,266.89V229.77h27.26v5.78H626.83v10H647.3v5.52H626.83v10h21.48v5.83Z"/><path class="cls-1" d="M657.06,266.89V229.77h27.26v5.78H663v10h20.47v5.52H663v10h21.48v5.83Z"/><path class="cls-1" d="M718.31,266.89,707,254.06h-7.85v12.83h-5.94V229.71l17.29.06c8.59,0,13.1,5.88,13.1,12.14,0,5.25-2.76,10.56-10.08,11.56l11.09,12.36.63,1.06Zm-19.14-18.24h11.29c4.88,0,7.11-3.08,7.11-6.63a6.61,6.61,0,0,0-7.05-6.85H699.17Z"/><path class="cls-1" d="M732.58,229.77h5.88v37.12h-5.88Z"/><path class="cls-1" d="M774.53,229.77h5.94v37.12H776l-21.06-26.2v26.2h-6V229.77h4.56l21.06,26.41Z"/><path class="cls-1" d="M808.15,234.54c-8.75,0-13.68,6.31-13.68,14.16,0,6.79,4,13.37,13.68,13.37a13.28,13.28,0,0,0,9.07-3.29v-7.53H806.88v-5.31h15.86v15.22a18.69,18.69,0,0,1-14.59,6.48c-13.58,0-19.52-9-19.52-18.94,0-10.55,6.84-19.62,19.52-19.62a19.3,19.3,0,0,1,13.74,5.62l-3.72,3.82A14.89,14.89,0,0,0,808.15,234.54Z"/><path class="cls-1" d="M456.86,283.57c-5,0-8.59,2.07-8.59,5.3,0,3.61,4.14,4.62,9,5.31,7.64,1.11,14.91,3.18,14.91,11.4S464.55,317,456.81,317c-7.16,0-12.57-2.18-16-8.43l4.46-3c2.7,4.51,7.26,6.1,11.56,6.1,4.46,0,9.39-1.43,9.39-6.15,0-3.82-4.25-5.3-9.5-6-7.37-1-14.37-2.87-14.37-10.82.16-7.16,7.53-10.34,14.32-10.34,5.36,0,10.72,1.27,13.84,6.25l-4.5,3C464.29,285.16,460.73,283.62,456.86,283.57Z"/><path class="cls-1" d="M480,316.3V279.17h27.26V285H485.92v10h20.47v5.52H485.92v10H507.4v5.84Z"/><path class="cls-1" d="M541.24,316.3l-11.3-12.84h-7.85V316.3h-5.94V279.12l17.29.05c8.59,0,13.1,5.89,13.1,12.14,0,5.25-2.76,10.56-10.08,11.57l11.09,12.35.63,1.07Zm-19.15-18.25h11.3c4.88,0,7.1-3.08,7.1-6.63a6.61,6.61,0,0,0-7-6.84H522.09Z"/><path class="cls-1" d="M565.84,316.46l-15.43-37.29h6.68l11.83,30.18,11.88-30.18h6.63l-15.38,37.29Z"/><path class="cls-1" d="M593.84,279.17h5.89V316.3h-5.89Z"/><path class="cls-1" d="M627.47,317c-13.42,0-19.57-9.28-19.57-19s6.25-19.47,19.57-19.47A18.74,18.74,0,0,1,641,284.15l-4,3.82a13.75,13.75,0,0,0-9.6-3.82c-9.5,0-13.69,7-13.69,13.79s4.14,13.53,13.69,13.53a14.39,14.39,0,0,0,9.86-4l4.09,4.08A19.16,19.16,0,0,1,627.47,317Z"/><path class="cls-1" d="M648.57,316.3V279.17h27.26V285H654.51v10H675v5.52H654.51v10H676v5.84Z"/><path class="cls-1" d="M697.74,283.57c-5,0-8.6,2.07-8.6,5.3,0,3.61,4.14,4.62,9,5.31,7.64,1.11,14.9,3.18,14.9,11.4S705.43,317,697.68,317c-7.16,0-12.57-2.18-16-8.43l4.45-3c2.71,4.51,7.27,6.1,11.57,6.1,4.45,0,9.38-1.43,9.38-6.15,0-3.82-4.24-5.3-9.49-6-7.37-1-14.38-2.87-14.38-10.82.16-7.16,7.54-10.34,14.33-10.34,5.35,0,10.71,1.27,13.84,6.25l-4.51,3C705.16,285.16,701.61,283.62,697.74,283.57Z"/><path class="cls-2" d="M0,324.54V0H46.55V324.54Z"/><path class="cls-2" d="M115,245.65V401.27H266.61v4.44H68.43V81.16H266.61V86H115V245.65Z"/><path class="cls-2" d="M288.48,160.05V4.88H136.85V0H335V324.54H136.85v-4.43H288.48V160.05Z"/><polygon class="cls-2" points="403.47 40.58 356.92 40.58 356.92 45.46 356.92 200.63 356.92 205.07 356.92 360.69 281.09 360.69 281.09 365.12 356.92 365.12 403.47 365.12 403.47 205.07 403.47 200.63 403.47 45.46 479.27 45.46 479.27 40.58 403.47 40.58"/><rect class="cls-2" x="189.86" y="159.04" width="31.85" height="6.45"/><rect class="cls-2" x="239.17" y="159.04" width="31.85" height="6.45"/><rect class="cls-2" x="202.56" y="146.35" width="6.45" height="31.85"/><rect class="cls-2" x="181.75" y="240.21" width="31.85" height="6.45"/><rect class="cls-2" x="132.44" y="240.21" width="31.85" height="6.45"/><rect class="cls-2" x="194.45" y="227.51" width="6.45" height="31.85"/></g></g></svg>