<?xml version="1.0" encoding="UTF-8" standalone="no"?><svg xmlns="http://www.w3.org/2000/svg" viewBox="0 0 224.74 190.17"><defs><style>.cls-1,.cls-6{fill:#005d63;}.cls-2{fill:#fff;stroke-width:22px;opacity:0.56;}.cls-2,.cls-3,.cls-4,.cls-5,.cls-6{stroke:#005d63;stroke-miterlimit:10;}.cls-3,.cls-4,.cls-5{fill:none;}.cls-3{stroke-width:2.26px;}.cls-4{stroke-width:21.8px;}.cls-5{stroke-width:2.1px;}.cls-6{stroke-width:3px;}</style></defs><g id="Layer_2" data-name="Layer 2"><g id="Layer_1-2" data-name="Layer 1"><path class="cls-1" d="M.09,152.13V0H21.91V152.13Z"/></g><g id="Layer_2-2" data-name="Layer 2"><line class="cls-2" x1="11" x2="11" y2="152.13"/><line class="cls-3" x1="54.01" y1="39.18" x2="125.08" y2="39.18"/><line class="cls-4" x1="43.12" y1="190.17" x2="43.12" y2="38.05"/><line class="cls-5" x1="125.08" y1="189.12" x2="53.99" y2="189.12"/><line class="cls-3" x1="64.23" y1="1.14" x2="135.3" y2="1.14"/><line class="cls-4" x1="146.19" x2="146.19" y2="152.13"/><line class="cls-5" x1="135.32" y1="151.07" x2="64.23" y2="151.07"/><line class="cls-3" x1="189.18" y1="20.16" x2="224.74" y2="20.16"/><line class="cls-4" x1="178.29" y1="171.15" x2="178.29" y2="19.03"/><line class="cls-5" x1="167.41" y1="170.12" x2="131.86" y2="170.12"/><line class="cls-6" x1="96.55" y1="68.6" x2="96.55" y2="83.53"/><line class="cls-6" x1="89.08" y1="76.06" x2="104.01" y2="76.06"/><line class="cls-6" x1="92.75" y1="106.65" x2="92.75" y2="121.58"/><line class="cls-6" x1="85.28" y1="114.11" x2="100.21" y2="114.11"/><line class="cls-6" x1="62.17" y1="114.11" x2="77.1" y2="114.11"/><line class="cls-6" x1="112.2" y1="76.07" x2="127.13" y2="76.07"/></g></g></svg>