<?xml version="1.0" encoding="UTF-8" standalone="no"?><svg xmlns="http://www.w3.org/2000/svg" xmlns:xlink="http://www.w3.org/1999/xlink" viewBox="0 0 478.64 392.89"><defs><style>.cls-1{mask:url(#mask);filter:url(#luminosity-noclip-5);}.cls-2,.cls-4,.cls-6,.cls-8{mix-blend-mode:multiply;}.cls-2{fill:url(#linear-gradient);}.cls-3{mask:url(#mask-2);filter:url(#luminosity-noclip-6);}.cls-4{fill:url(#linear-gradient-2);}.cls-5{mask:url(#mask-3);filter:url(#luminosity-noclip-7);}.cls-6{fill:url(#linear-gradient-3);}.cls-7{mask:url(#mask-4);filter:url(#luminosity-noclip-8);}.cls-8{fill:url(#linear-gradient-4);}.cls-9{fill:#fff6eb;}.cls-10{fill:#b7dcff;}.cls-11{fill:#82bb27;}.cls-12{fill:#fff;}.cls-13{fill:#522d34;}.cls-14{fill:#112633;}.cls-15{fill:#9fcb59;}.cls-16{fill:#a8d8ff;}.cls-17{fill:#faa88d;}.cls-18{fill:#ec8777;}.cls-19{fill:#719fd1;}.cls-20{fill:#d2ebff;}.cls-21{fill:#9dc9ec;}.cls-22{fill:#005d63;}.cls-23{fill:#6f3d47;}.cls-24{fill:#004543;}.cls-25{fill:#ff9100;}.cls-26{fill:#1b3c51;}.cls-27{fill:#ff5962;}.cls-28{fill:#81ac60;}.cls-29{mask:url(#mask-5);}.cls-30{fill:url(#linear-gradient-5);}.cls-31{mask:url(#mask-6);}.cls-32{fill:url(#linear-gradient-6);}.cls-33{fill:#e50027;}.cls-34{fill:#ffbc00;}.cls-35{fill:#63990e;}.cls-36{mask:url(#mask-7);}.cls-37{fill:url(#linear-gradient-7);}.cls-38{mask:url(#mask-8);}.cls-39{fill:url(#linear-gradient-8);}.cls-40{filter:url(#luminosity-noclip-4);}.cls-41{filter:url(#luminosity-noclip-3);}.cls-42{filter:url(#luminosity-noclip-2);}.cls-43{filter:url(#luminosity-noclip);}</style><filter id="luminosity-noclip" x="348.07" y="-8388.44" width="44.68" height="32766" filterUnits="userSpaceOnUse" color-interpolation-filters="sRGB"><feFlood flood-color="#fff" result="bg"/><feBlend in="SourceGraphic" in2="bg"/></filter><mask id="mask" x="348.07" y="-8388.44" width="44.68" height="32766" maskUnits="userSpaceOnUse"><g class="cls-43"/></mask><linearGradient id="linear-gradient" x1="429.62" y1="221.63" x2="487.28" y2="182.52" gradientTransform="translate(-108.22 -97.19) rotate(-2.19)" gradientUnits="userSpaceOnUse"><stop offset="0"/><stop offset="1" stop-color="#fff"/></linearGradient><filter id="luminosity-noclip-2" x="351.58" y="-8388.44" width="36.84" height="32766" filterUnits="userSpaceOnUse" color-interpolation-filters="sRGB"><feFlood flood-color="#fff" result="bg"/><feBlend in="SourceGraphic" in2="bg"/></filter><mask id="mask-2" x="351.58" y="-8388.44" width="36.84" height="32766" maskUnits="userSpaceOnUse"><g class="cls-42"/></mask><linearGradient id="linear-gradient-2" x1="434.26" y1="228.47" x2="491.92" y2="189.36" xlink:href="#linear-gradient"/><filter id="luminosity-noclip-3" x="48.51" y="-8388.44" width="18.39" height="32766" filterUnits="userSpaceOnUse" color-interpolation-filters="sRGB"><feFlood flood-color="#fff" result="bg"/><feBlend in="SourceGraphic" in2="bg"/></filter><mask id="mask-3" x="48.51" y="-8388.44" width="18.39" height="32766" maskUnits="userSpaceOnUse"><g class="cls-41"/></mask><linearGradient id="linear-gradient-3" x1="1614.23" y1="2003.77" x2="1672.05" y2="1925.32" gradientTransform="translate(-2432.04 -481.98) rotate(-36.53)" xlink:href="#linear-gradient"/><filter id="luminosity-noclip-4" x="64.31" y="-8388.44" width="9.65" height="32766" filterUnits="userSpaceOnUse" color-interpolation-filters="sRGB"><feFlood flood-color="#fff" result="bg"/><feBlend in="SourceGraphic" in2="bg"/></filter><mask id="mask-4" x="64.31" y="-8388.44" width="9.65" height="32766" maskUnits="userSpaceOnUse"><g class="cls-40"/></mask><linearGradient id="linear-gradient-4" x1="1623.11" y1="2011.04" x2="1681.15" y2="1932.27" gradientTransform="translate(-2432.04 -481.98) rotate(-36.53)" xlink:href="#linear-gradient"/><filter id="luminosity-noclip-5" x="348.07" y="62.42" width="44.68" height="32.91" filterUnits="userSpaceOnUse" color-interpolation-filters="sRGB"><feFlood flood-color="#fff" result="bg"/><feBlend in="SourceGraphic" in2="bg"/></filter><mask id="mask-5" x="348.07" y="62.42" width="44.68" height="32.91" maskUnits="userSpaceOnUse"><g class="cls-1"><path class="cls-2" d="M392.56,67.8a1.58,1.58,0,0,0-.65-2.12l-6.11-3.26L356.27,79.13l-8.2,15.41,1.49.79,40.57-23Z"/></g></mask><linearGradient id="linear-gradient-5" x1="429.62" y1="221.63" x2="487.28" y2="182.52" gradientTransform="translate(-108.22 -97.19) rotate(-2.19)" gradientUnits="userSpaceOnUse"><stop offset="0" stop-color="#fff"/><stop offset="1" stop-color="#fff"/></linearGradient><filter id="luminosity-noclip-6" x="351.58" y="75.56" width="36.84" height="23.49" filterUnits="userSpaceOnUse" color-interpolation-filters="sRGB"><feFlood flood-color="#fff" result="bg"/><feBlend in="SourceGraphic" in2="bg"/></filter><mask id="mask-6" x="351.58" y="75.56" width="36.84" height="23.49" maskUnits="userSpaceOnUse"><g class="cls-3"><polygon class="cls-4" points="356.54 99.05 384.28 83.35 388.43 75.56 351.58 96.41 356.54 99.05"/></g></mask><linearGradient id="linear-gradient-6" x1="434.26" y1="228.47" x2="491.92" y2="189.36" xlink:href="#linear-gradient-5"/><filter id="luminosity-noclip-7" x="48.51" y="78.72" width="18.39" height="69.31" filterUnits="userSpaceOnUse" color-interpolation-filters="sRGB"><feFlood flood-color="#fff" result="bg"/><feBlend in="SourceGraphic" in2="bg"/></filter><mask id="mask-7" x="48.51" y="78.72" width="18.39" height="69.31" maskUnits="userSpaceOnUse"><g class="cls-5"><polygon class="cls-6" points="66.9 78.72 53.49 89.92 48.51 146.44 49.56 148.03 61.68 137.92 66.9 78.72"/></g></mask><linearGradient id="linear-gradient-7" x1="1614.23" y1="2003.77" x2="1672.05" y2="1925.32" gradientTransform="translate(-2432.04 -481.98) rotate(-36.53)" xlink:href="#linear-gradient-5"/><filter id="luminosity-noclip-8" x="64.31" y="72.95" width="9.65" height="62.77" filterUnits="userSpaceOnUse" color-interpolation-filters="sRGB"><feFlood flood-color="#fff" result="bg"/><feBlend in="SourceGraphic" in2="bg"/></filter><mask id="mask-8" x="64.31" y="72.95" width="9.65" height="62.77" maskUnits="userSpaceOnUse"><g class="cls-7"><polygon class="cls-8" points="68.78 131.98 73.96 73.18 73.81 72.95 69.53 76.52 64.31 135.72 68.78 131.98"/></g></mask><linearGradient id="linear-gradient-8" x1="1623.11" y1="2011.04" x2="1681.15" y2="1932.27" gradientTransform="translate(-2432.04 -481.98) rotate(-36.53)" xlink:href="#linear-gradient-5"/></defs><g id="Layer_2" data-name="Layer 2"><g id="Layer_1-2" data-name="Layer 1"><path class="cls-9" d="M103.71,289.47S40.64,250.66,42.63,207s81,27,81,27-49.23-59.51-18.88-78.51,47.47,50.88,47.47,50.88-1.36-69.45,34-66.34,58.44,137.11,58.44,137.11Z"/><path class="cls-9" d="M373.83,299.6s69.31-26.1,75.65-69.33-84.62,11.1-84.62,11.1S426.78,190.46,400.6,166s-58.55,42.78-58.55,42.78,14.54-67.93-20.72-71.6-45.86,139.86-45.86,139.86Z"/><path class="cls-9" d="M153.18,214.39c2.73-13.44-1-27-.75-40.49a42,42,0,0,1,3.71-17.67A23.61,23.61,0,0,1,168,144.42c6.5-2.74,13.8-2.54,20.71-2.33.48,0,.48-.73,0-.74-6.22-.2-12.65-.35-18.66,1.53A23.66,23.66,0,0,0,157,153.19c-6.9,11.2-5.43,24.88-4.27,37.35.73,7.86,1.37,15.85-.22,23.65-.09.47.63.67.72.2Z"/><path class="cls-9" d="M331.53,230.82c8.61-11.46,12.8-25.33,18.83-38.15,5.72-12.16,13.74-24.17,26.7-29.37a30,30,0,0,1,10.49-2.22,15.43,15.43,0,0,1,5.11.53c1.45.47,3,1.42,3.08,3.1,0,.48.78.48.75,0-.15-2.74-3.12-3.92-5.47-4.22a26.77,26.77,0,0,0-9.64.65,38.66,38.66,0,0,0-17.22,9.7c-10.68,10.08-15.77,24.37-21.38,37.55-3.27,7.7-6.84,15.34-11.89,22.05-.29.38.36.76.64.38Z"/><path class="cls-10" d="M121.31,118c0,21.54-19.53,39-43.61,39s-43.61-17.47-43.61-39-3.58-68.55,43.61-39S121.31,96.4,121.31,118Z"/><path class="cls-10" d="M263.09,68.38c-13.25,3.68-41.71-2.57-47.28-20.21S226.4,26.35,247,19.87,292.47.15,298.29,28.53,276.35,64.7,263.09,68.38Z"/><path class="cls-10" d="M380.5,62.24c12.31,12.78.06,27.76-15,38.51a33.66,33.66,0,0,1-46.91-8.09c-10.85-15.2-36.74-46.79,7.64-47S368.19,49.47,380.5,62.24Z"/><path class="cls-10" d="M442.09,147.38c-11.09,14.07-32.43,15.74-47.67,3.74S375.81,118,386.89,103.9s33-46.55,47.67-3.74S453.17,133.31,442.09,147.38Z"/><path class="cls-10" d="M116,78.63c9.9-3.9,24.75-9.47,34.27-18.17S170.23,35.55,197,55.52s8.42,10.81-20.26,40.23S106.11,82.53,116,78.63Z"/><rect class="cls-11" x="190.28" y="4.29" width="27.58" height="39.63" transform="translate(28.08 130.19) rotate(-37.82)"/><rect class="cls-12" x="182.74" y="10.93" width="23.5" height="2.13" transform="translate(33.5 121.77) rotate(-37.82)"/><rect class="cls-12" x="189.88" y="13.64" width="13.43" height="2.13" transform="translate(32.27 123.64) rotate(-37.82)"/><path class="cls-12" d="M191,27a.27.27,0,0,1-.23-.12.28.28,0,0,1,.05-.41l15.56-12.08a.29.29,0,0,1,.41.05.29.29,0,0,1-.05.42L191.17,26.89A.3.3,0,0,1,191,27Z"/><path class="cls-12" d="M192.17,28.47a.3.3,0,0,1-.18-.53l15.56-12.08a.3.3,0,1,1,.36.47L192.36,28.41A.33.33,0,0,1,192.17,28.47Z"/><path class="cls-12" d="M193.35,30a.28.28,0,0,1-.23-.11.3.3,0,0,1,0-.42l15.56-12.08a.3.3,0,0,1,.42.06.29.29,0,0,1-.05.41L193.54,29.93A.33.33,0,0,1,193.35,30Z"/><path class="cls-12" d="M194.54,31.52a.3.3,0,0,1-.19-.54l10-7.75a.29.29,0,0,1,.42.05.3.3,0,0,1-.05.42l-10,7.75A.27.27,0,0,1,194.54,31.52Z"/><path class="cls-12" d="M204.25,44a.28.28,0,0,1-.23-.12.3.3,0,0,1,0-.42l6.72-5.21a.29.29,0,0,1,.41.05.29.29,0,0,1,0,.42L204.44,44A.28.28,0,0,1,204.25,44Z"/><path class="cls-12" d="M205.44,45.56a.3.3,0,0,1-.24-.12.29.29,0,0,1,.05-.41l4.32-3.35a.29.29,0,0,1,.42,0,.3.3,0,0,1-.06.42l-4.31,3.35A.32.32,0,0,1,205.44,45.56Z"/><path class="cls-9" d="M277.85,204.77c3.3-10.66,6.61-21.36,11.21-31.54A93.41,93.41,0,0,1,305.25,148a63.05,63.05,0,0,1,12.69-10.58c.41-.25,0-.9-.37-.64a69.82,69.82,0,0,0-20.63,20.59c-6,8.93-10.31,18.87-13.89,29-2.14,6-4,12.13-5.92,18.23a.37.37,0,0,0,.72.2Z"/><path class="cls-9" d="M393.79,287.86a184.52,184.52,0,0,0,61.43-46.62c2.8-3.26,5.86-6.83,6.09-11.34.21-4.07-2.43-7.09-5.77-9-7.72-4.47-17.23-5-25.93-5.28-1.16,0-2.31-.06-3.47-.08a.37.37,0,0,0,0,.74c8.91.18,18.19.37,26.5,4,3.42,1.5,7.17,3.84,7.84,7.84.78,4.73-2.53,8.8-5.38,12.14a183.36,183.36,0,0,1-61.68,47c-.44.21-.06.85.37.65Z"/><path class="cls-9" d="M106.72,288a131.93,131.93,0,0,1-30.38-20.83A135.42,135.42,0,0,1,52.76,238.8a133.23,133.23,0,0,1-8.57-16.14q-1.92-4.29-3.51-8.72a51.41,51.41,0,0,1-2.92-11c-.79-6.34.78-13.68,6.53-17.31,6.29-4,14.11-2.24,20.77-.37,14,3.95,28.77,7.47,43.4,4.77a54.6,54.6,0,0,0,5.34-1.29.37.37,0,0,0-.2-.72c-14.87,4.42-30.63,1.48-45.22-2.59-6.8-1.9-14.11-4.32-21.13-2a14.3,14.3,0,0,0-7.26,5.3,18.3,18.3,0,0,0-3.05,8.47c-.8,7.08,1.88,14.17,4.44,20.64a131.74,131.74,0,0,0,8,16.77,136.1,136.1,0,0,0,22.81,29.6,133,133,0,0,0,30,22.23q2,1.1,4.06,2.1c.43.21.81-.43.38-.64Z"/><rect class="cls-11" x="154.96" y="61.03" width="39.75" height="28.96" transform="translate(-3.56 8.85) rotate(-2.87)"/><path class="cls-13" d="M175.13,82.3h0a.29.29,0,0,0,.21-.11L194,60.48l0-.43-.41,0-18.43,21.5L154.66,62l-.4,0,0,.43,20.64,19.75A.32.32,0,0,0,175.13,82.3Z"/><path class="cls-13" d="M170.76,77.86a.3.3,0,0,0,0-.42.29.29,0,0,0-.42,0L155.69,90.59l0,.38.47,0Z"/><path class="cls-13" d="M195.39,88.6,179.47,77a.3.3,0,1,0-.36.48L194.93,89l.47,0Z"/><circle class="cls-14" cx="256.89" cy="31.19" r="28.09" transform="translate(205.99 284.91) rotate(-85.58)"/><path class="cls-15" d="M339.78,98.13a.3.3,0,0,1-.28-.21c-.68-2.14-1.14-3.35-1.15-3.36a.31.31,0,0,1,.17-.39.31.31,0,0,1,.39.17s.47,1.24,1.16,3.4a.3.3,0,0,1-.2.38Z"/><path class="cls-15" d="M93.7,308,91,308a.3.3,0,0,1,0-.6h0c2.33,0,4.72,0,7.13,0a.3.3,0,1,1,0,.59C96.65,308,95.16,308,93.7,308Zm-9.82-.32h0c-2.41-.15-4.8-.38-7.12-.65a.3.3,0,0,1-.26-.34.3.3,0,0,1,.33-.26c2.31.28,4.69.5,7.09.66a.3.3,0,0,1,0,.59ZM69.73,306h-.06c-2.37-.43-4.72-.93-7-1.5a.3.3,0,1,1,.14-.58c2.25.56,4.59,1.06,7,1.49a.3.3,0,0,1,.24.35A.29.29,0,0,1,69.73,306Zm-13.82-3.45-.1,0c-2.29-.74-4.54-1.58-6.7-2.48a.29.29,0,0,1-.16-.39.3.3,0,0,1,.39-.16c2.14.9,4.38,1.73,6.66,2.47a.29.29,0,0,1,.19.37A.3.3,0,0,1,55.91,302.54Zm-13.15-5.48a.22.22,0,0,1-.13,0c-2.14-1.11-4.22-2.31-6.19-3.58a.31.31,0,0,1-.09-.42.3.3,0,0,1,.41-.08c2,1.26,4,2.45,6.14,3.55a.31.31,0,0,1,.13.41A.32.32,0,0,1,42.76,297.06Zm-12-7.72a.26.26,0,0,1-.18-.07,67.51,67.51,0,0,1-5.38-4.72.3.3,0,0,1,.42-.43A68.45,68.45,0,0,0,31,288.81a.3.3,0,0,1,0,.42A.28.28,0,0,1,30.8,289.34Zm-10.17-9.95a.28.28,0,0,1-.23-.11,66.35,66.35,0,0,1-4.26-5.76.3.3,0,0,1,.5-.33,65.17,65.17,0,0,0,4.22,5.71.31.31,0,0,1,0,.42A.3.3,0,0,1,20.63,279.39Zm-7.82-11.9a.32.32,0,0,1-.27-.16,66,66,0,0,1-2.91-6.54.3.3,0,1,1,.56-.21,65.82,65.82,0,0,0,2.88,6.48.29.29,0,0,1-.13.4A.31.31,0,0,1,12.81,267.49ZM7.72,254.2a.31.31,0,0,1-.29-.23A71.26,71.26,0,0,1,6,247a.29.29,0,0,1,.25-.34.29.29,0,0,1,.34.25A70.66,70.66,0,0,0,8,253.82a.31.31,0,0,1-.21.37ZM5.5,240.13a.3.3,0,0,1-.3-.28c-.07-1.32-.11-2.66-.11-4,0-1.05,0-2.12.07-3.18a.31.31,0,0,1,.31-.28.29.29,0,0,1,.29.31c0,1-.07,2.1-.07,3.15,0,1.31,0,2.64.11,3.95a.3.3,0,0,1-.28.31Zm238.13-10.9h0c-2.33-.09-4.73-.28-7.13-.57a.3.3,0,0,1-.26-.33.3.3,0,0,1,.33-.26c2.38.28,4.77.47,7.08.56a.3.3,0,0,1,.28.31A.29.29,0,0,1,243.63,229.23Zm7.12,0a.3.3,0,0,1-.3-.28.29.29,0,0,1,.28-.31c2.38-.11,4.76-.33,7.08-.65a.29.29,0,0,1,.33.26.29.29,0,0,1-.25.33c-2.33.32-4.73.54-7.13.65Zm-21.27-1.63h0c-2.28-.43-4.62-1-7-1.54a.3.3,0,1,1,.14-.58c2.35.59,4.69,1.11,6.95,1.53a.3.3,0,0,1,.23.35A.29.29,0,0,1,229.48,227.58Zm35.38-.32a.3.3,0,0,1-.07-.59c2.29-.53,4.59-1.19,6.83-1.94a.3.3,0,0,1,.38.18.3.3,0,0,1-.19.38c-2.26.76-4.57,1.42-6.88,2ZM6.12,225.9h0a.29.29,0,0,1-.25-.34,70.31,70.31,0,0,1,1.36-7,.3.3,0,0,1,.58.14c-.56,2.29-1,4.64-1.35,7A.29.29,0,0,1,6.12,225.9Zm209.53-1.77h-.09c-2.19-.68-4.48-1.43-6.78-2.25a.29.29,0,0,1-.18-.38.3.3,0,0,1,.38-.18c2.29.82,4.57,1.57,6.76,2.24a.29.29,0,0,1,.19.37A.29.29,0,0,1,215.65,224.13Zm62.72-1.4a.28.28,0,0,1-.27-.18.29.29,0,0,1,.15-.39c1.66-.73,3.34-1.54,5-2.4l1.52-.54a.29.29,0,0,1,.38.18.29.29,0,0,1-.18.38l-1.48.53c-1.63.84-3.32,1.66-5,2.39A.27.27,0,0,1,278.37,222.73Zm-76.18-3.34-.1,0c-2.13-.84-4.35-1.75-6.61-2.72a.3.3,0,0,1-.16-.39.31.31,0,0,1,.39-.16c2.26,1,4.47,1.88,6.59,2.71a.3.3,0,0,1,.17.39A.29.29,0,0,1,202.19,219.39Zm89.31-2.2a.31.31,0,0,1-.28-.18.3.3,0,0,1,.16-.39c2.21-.94,4.38-1.94,6.46-3a.3.3,0,0,1,.26.54c-2.08,1-4.27,2-6.49,3Zm-102.43-3.4-.13,0c-2.06-.94-4.24-2-6.47-3a.3.3,0,0,1,.25-.54c2.24,1.07,4.41,2.08,6.47,3a.3.3,0,0,1,.15.4A.29.29,0,0,1,189.07,213.79ZM9.51,212.07l-.1,0a.3.3,0,0,1-.18-.38A69.72,69.72,0,0,1,12,205.05a.29.29,0,0,1,.39-.14.3.3,0,0,1,.14.4c-1,2.12-1.91,4.33-2.7,6.56A.29.29,0,0,1,9.51,212.07Zm294.73-1.25a.3.3,0,0,1-.26-.15.31.31,0,0,1,.11-.41c2.07-1.21,4.09-2.49,6-3.81a.29.29,0,0,1,.41.08.3.3,0,0,1-.07.42c-1.93,1.32-4,2.61-6,3.83A.42.42,0,0,1,304.24,210.82Zm-128.07-3.14a.28.28,0,0,1-.13,0c-2.13-1.05-4.27-2.1-6.4-3.17a.3.3,0,0,1-.14-.4.31.31,0,0,1,.4-.13c2.14,1.06,4.27,2.12,6.4,3.16a.29.29,0,0,1,.13.4A.28.28,0,0,1,176.17,207.68Zm139.79-5a.31.31,0,0,1-.23-.11.31.31,0,0,1,0-.42c1.85-1.5,3.64-3.09,5.32-4.71a.3.3,0,0,1,.42,0,.31.31,0,0,1,0,.43c-1.69,1.63-3.49,3.23-5.35,4.74A.28.28,0,0,1,316,202.73ZM163.4,201.32a.35.35,0,0,1-.14,0l-.76-.38-5.61-2.81a.29.29,0,0,1-.13-.4.3.3,0,0,1,.4-.14l5.61,2.82.76.38a.3.3,0,0,1-.13.56ZM15.6,199.2a.3.3,0,0,1-.15,0,.29.29,0,0,1-.1-.41,63.43,63.43,0,0,1,4-5.9.29.29,0,0,1,.41-.06.3.3,0,0,1,.06.42,65.69,65.69,0,0,0-4,5.85A.3.3,0,0,1,15.6,199.2Zm135-4.24a.31.31,0,0,1-.13,0c-2.13-1.05-4.27-2.1-6.42-3.12a.3.3,0,0,1-.14-.4.3.3,0,0,1,.4-.14q3.22,1.54,6.42,3.12a.3.3,0,0,1,.14.4A.29.29,0,0,1,150.63,195Zm175.56-2.14a.26.26,0,0,1-.19-.07.29.29,0,0,1,0-.42c1.54-1.79,3-3.67,4.38-5.58a.29.29,0,0,1,.42-.07.3.3,0,0,1,.07.41c-1.38,1.93-2.86,3.82-4.42,5.63A.29.29,0,0,1,326.19,192.82Zm-188.44-4a.31.31,0,0,1-.13,0c-2.23-1-4.42-2-6.51-2.93a.3.3,0,0,1-.15-.39.29.29,0,0,1,.39-.15c2.1.91,4.29,1.9,6.52,2.93a.3.3,0,0,1,.15.4A.29.29,0,0,1,137.75,188.79Zm-113.46-.87a.26.26,0,0,1-.2-.08.29.29,0,0,1,0-.42,60.18,60.18,0,0,1,5.28-4.84.3.3,0,0,1,.42,0,.29.29,0,0,1,0,.42,58.88,58.88,0,0,0-5.23,4.78A.31.31,0,0,1,24.29,187.92Zm100.37-4.86-.12,0c-2.25-.93-4.48-1.81-6.64-2.62a.3.3,0,0,1-.17-.39.3.3,0,0,1,.38-.17c2.16.82,4.4,1.7,6.66,2.63a.29.29,0,0,1,.16.38A.3.3,0,0,1,124.66,183.06Zm209.8-1.84a.24.24,0,0,1-.15,0,.29.29,0,0,1-.11-.4c1.18-2,2.28-4.16,3.27-6.31a.3.3,0,0,1,.54.25c-1,2.17-2.11,4.31-3.3,6.36A.29.29,0,0,1,334.46,181.22ZM35.35,179a.3.3,0,0,1-.15-.55A58,58,0,0,1,41.5,175a.31.31,0,0,1,.4.15.29.29,0,0,1-.15.39,56.9,56.9,0,0,0-6.24,3.38A.29.29,0,0,1,35.35,179Zm75.93-.95h-.1c-2.3-.78-4.58-1.51-6.8-2.17a.3.3,0,0,1-.2-.37.3.3,0,0,1,.37-.2c2.22.66,4.52,1.39,6.82,2.17a.3.3,0,0,1-.09.58Zm-13.7-4H97.5c-2.33-.58-4.67-1.1-7-1.55a.3.3,0,0,1,.12-.58c2.28.45,4.63,1,7,1.55a.3.3,0,0,1-.07.59Zm-49.31-1a.3.3,0,0,1-.09-.58,57.91,57.91,0,0,1,7-1.75.29.29,0,0,1,.34.24.3.3,0,0,1-.23.35A56.71,56.71,0,0,0,48.36,173Zm35.31-1.75h0c-2.37-.32-4.75-.58-7.07-.76a.29.29,0,0,1-.27-.32.29.29,0,0,1,.32-.27c2.33.18,4.72.43,7.1.76a.3.3,0,0,1,.25.34A.3.3,0,0,1,83.58,171.26Zm-21.33-.89a.3.3,0,0,1,0-.6q1.05-.08,2.13-.12c1.68-.06,3.36-.08,5-.06a.29.29,0,0,1,.3.3.31.31,0,0,1-.3.29h0c-1.64,0-3.32,0-5,.07l-2.11.11Zm278.19-2.07-.1,0a.29.29,0,0,1-.18-.38c.78-2.2,1.49-4.49,2.1-6.79a.28.28,0,0,1,.36-.21.3.3,0,0,1,.22.36c-.62,2.32-1.33,4.62-2.12,6.84A.31.31,0,0,1,340.44,168.3Zm3.65-13.78h0a.3.3,0,0,1-.24-.35c.41-2.29.75-4.66,1-7a.29.29,0,0,1,.32-.27.31.31,0,0,1,.27.33c-.26,2.4-.6,4.78-1,7.09A.31.31,0,0,1,344.09,154.52Zm1.52-14.18h0a.29.29,0,0,1-.29-.31c.05-1.36.08-2.76.08-4.15,0-1,0-2,0-3a.3.3,0,1,1,.59,0c0,1,0,2,0,3,0,1.4,0,2.8-.08,4.17A.28.28,0,0,1,345.61,140.34Zm-.36-14.26a.3.3,0,0,1-.3-.27c-.19-2.33-.46-4.71-.79-7.07a.3.3,0,0,1,.25-.34.3.3,0,0,1,.34.26c.33,2.37.6,4.76.8,7.1a.3.3,0,0,1-.27.32Zm-2-14.12a.3.3,0,0,1-.29-.24c-.46-2.34-1-4.68-1.55-7a.3.3,0,0,1,.22-.36.29.29,0,0,1,.36.21c.57,2.29,1.1,4.64,1.56,7a.3.3,0,0,1-.24.35Z"/><path class="cls-15" d="M105.43,307.61a.3.3,0,0,1-.3-.28.29.29,0,0,1,.28-.31l3.56-.28a.31.31,0,0,1,.32.27.3.3,0,0,1-.27.32c-1.2.11-2.39.2-3.57.28Z"/><rect class="cls-16" x="43.25" y="384.55" width="399.28" height="3.12"/><polygon class="cls-11" points="442.53 384.55 43.25 384.55 90.04 280.33 409.72 280.33 442.53 384.55"/><path class="cls-15" d="M377.72,336.22c0,16.24-53.86,25.94-132,25.94s-129.93-6.9-129.93-25.94,61.5-49.29,130.63-49.29S377.72,320,377.72,336.22Z"/><path class="cls-14" d="M285.29,342.89c-1.35,8.28-3.68,14.65-5.8,14.31s-3.23-7.28-1.88-15.57,4.57-14.49,6.69-14.15S286.64,334.6,285.29,342.89Z"/><path class="cls-15" d="M321.41,348.61c5.13,16.86-2.07,29.82-9.45,36l-13.66-.08,10-34.06Z"/><path class="cls-17" d="M271.15,353l11.18,3,7.79,1.94c3.19.47,6.37-20,5.25-20.25-8.07-1.67-18.05-4.82-18.05-4.82Z"/><path class="cls-18" d="M280.71,333.94,277,354.6l5.25,1.42.64.16c-1.84-2.25,1.49-18.11,7.51-19.57C287,335.73,283.07,334.63,280.71,333.94Z"/><path class="cls-12" d="M319.54,348.35c-2.24-9.69-12.64-8.68-21-10-1-.17-2.09-.37-3.21-.6-3.7,2.3-7.52,14.79-5.25,20.25,3.19.47,5.25,3.5,5.25,6.82,0,7.95-11,24.19-.19,25.17S321.78,358,319.54,348.35Z"/><path class="cls-11" d="M310.18,339.91a12,12,0,0,0-1.41,3.2,12.27,12.27,0,0,0,8.54,15.09,10.28,10.28,0,0,0,1.07.24c1.2-4.16,1.69-7.78,1.16-10.09C318.31,343,314.63,340.94,310.18,339.91Z"/><path class="cls-11" d="M291.14,380.32c-1.31,5-1.24,9.17,4,9.65,3.34.31,7.17-2.65,10.8-7.16C299.61,378,294.52,378.69,291.14,380.32Z"/><path class="cls-11" d="M294.56,361.33a42.28,42.28,0,0,1,8.16-22.48l-.85-.09a43.07,43.07,0,0,0-8,21.49A7.48,7.48,0,0,1,294.56,361.33Z"/><path class="cls-15" d="M219.49,361.87c-12.69,1.3-2.93,16.06.4,22.68H204.14L202,354.67Z"/><path class="cls-17" d="M238.27,144.57s-6-5.68-8.26-1,5,13.48,8.9,11.76S238.27,144.57,238.27,144.57Z"/><path class="cls-18" d="M237.77,146.25s-4.39-4.14-6-.72,3.64,9.83,6.49,8.57S237.77,146.25,237.77,146.25Z"/><path class="cls-13" d="M237.09,144.33s-7.38-6.86-5.7-19.11,11.94-8.29,11.94-8.29,3.66-9.3,12.65-8.73,16,9.72,23,11a16.77,16.77,0,0,0,11.58-1.68s0,20.15-16.09,27.66S237.09,144.33,237.09,144.33Z"/><path class="cls-19" d="M109.56,230.74c-4.93,3.26-9.58,4.91-10.39,3.69s2.53-4.85,7.46-8.11,9.56-5.85,10.37-4.63C117.33,223.27,114.48,227.48,109.56,230.74Z"/><path class="cls-19" d="M389.69,222.37c-4.43-3-7.36-6.37-6.55-7.59s5.07.21,9.5,3.19,8.1,6.53,7.28,7.75C398.64,226.67,394.12,225.35,389.69,222.37Z"/><path class="cls-17" d="M380.78,221.45s7.47-14.06,6.5-22.34a51.82,51.82,0,0,0-1.22-6.58c-1-4.12,12-13.53,13.34-10.93s-4.09,6.33-6,8.63a12.89,12.89,0,0,1,2.39,3.92s1.23.47,9.28-2.52c1.67-.62,1.56-4.93,1.56-4.93s-8.13-3.37-6.9-5.5,12.06,1.68,13.19,5.63-.56,6.26-.56,6.26,17.66-2.35,19.4-1.57,1.59,2,1.59,2a2,2,0,0,1,1.44,2.23c-.13,3.08-16.69,6.85-16.69,6.85s14.9.47,15.17,3.22-29.75,8.39-29.75,8.39L394,234.78Z"/><path class="cls-18" d="M399.19,223.56c-3.64.44-13.84-7.74-14.72-10.37a82.07,82.07,0,0,1-3.69,8.26l12.13,12.21,1.41.49Z"/><path class="cls-17" d="M118,233s-5.81-16.89,0-30.42c1.7-5.55-7.62-15.58-11.1-14.09s4.27,10.11,4.27,10.11l-4,4.94-10.52-9.12s11-2.88,9.4-6-15.89-.51-15.89,4a9.6,9.6,0,0,0,3.46,7.15s-15.69-7.34-20.86-5c-1.47.81-.52,1.83-.52,1.83s-2.84-.65-2.84,1.54,15.06,10.77,15.06,10.77S70,205.58,69.2,208.24,97,221.85,97,221.85l7.78,22.08Z"/><path class="cls-18" d="M102,236.05c2.61-.78,13.65-4.25,14.77-7.69a73.52,73.52,0,0,1-1.41-7.46c-4.29,5.38-12.79,9.27-15.7,8.5Z"/><path class="cls-17" d="M275.79,144.57s6-5.68,8.26-1-5,13.48-8.9,11.76S275.79,144.57,275.79,144.57Z"/><path class="cls-18" d="M275.69,146s4.58-4.32,6.29-.75-3.8,10.25-6.77,8.94S275.69,146,275.69,146Z"/><path class="cls-20" d="M180,272.75l4.56-19.17s-24.31,35.53-53.93,24.7-31.55-44-31.55-44c3.45,1.52,19-9.35,18-12.82,0,0,9,24.9,26.83,22.73s35.4-41.67,68.63-51.78,65-7.71,82.35,2.16,34.93,42.61,56.36,42.61,32-22.53,32-22.53c-.69,3.52,11.93,12.44,16.76,11.05,0,0-5.51,34.43-33,47s-53.63-20.2-53.63-20.2l3.85,15.65Z"/><polygon class="cls-21" points="241.86 202.55 255.51 195.4 268.18 202.51 257.79 192.29 253.15 192.91 241.86 202.55"/><path class="cls-10" d="M367,272.72c11.57-5.3,19.24-14.48,24.24-23.33-3,4.24-15,19-39.44,17.47C322.72,265,309,229.3,309,229.3l4.54,23.32a4.24,4.24,0,0,1,.63.89C318.84,258.89,342.39,284,367,272.72Z"/><path class="cls-10" d="M184.44,253.55l7.1-26.46S179.14,271,142,270.82c-22.45-.1-33.33-8.93-37.46-16.83,4.37,9.19,12.17,19.2,26.08,24.29,9.53,3.48,18.5,2.17,26.3-1.22C173.11,269.39,184.44,253.55,184.44,253.55Z"/><polygon class="cls-18" points="241.29 177.51 241.29 166.77 269.73 167.97 269.39 179.78 255.74 192.29 241.29 177.51"/><path class="cls-22" d="M378.86,310.81c-.24-38.51-60-40.87-60-40.87S219.2,267.86,180,272.72c0,0-71.42,7.27-68,43.38,2.12,22.76,68,33.1,116.41,37.64a9.67,9.67,0,0,1-1.21,4.5s11.29-.67,27.71-2.41c14.63.95,24.24,1.23,24.24,1.23a6.37,6.37,0,0,1-.47-4.14C322.7,346.75,379,334.27,378.86,310.81ZM307,312.45l-53,7.64-74-7.93Z"/><polygon class="cls-23" points="181.54 265.75 316.5 265.75 318.69 269.94 179.88 272.72 181.54 265.75"/><path class="cls-19" d="M254.2,266h0a.29.29,0,0,1-.29-.3l1.53-73.45a.32.32,0,0,1,.31-.29.3.3,0,0,1,.29.3l-1.54,73.45A.29.29,0,0,1,254.2,266Z"/><polygon class="cls-22" points="254 204.11 246.44 237.76 255.77 247.07 265.1 238.54 257.85 204.11 254 204.11"/><polygon class="cls-20" points="229.58 188.22 241.69 202.42 255.98 190.56 268.43 202.36 282.37 189.49 269.39 179.78 255.98 190.56 241.29 177.51 229.58 188.22"/><polygon class="cls-24" points="247.13 197.96 254 204.11 257.85 204.11 264.42 198.62 255.98 190.56 247.13 197.96"/><polygon class="cls-22" points="255.98 190.86 262.61 200.13 264.42 198.62 255.98 190.56 247.13 197.96 249.4 200 255.98 190.86"/><path class="cls-17" d="M244.78,127.26c-.71,8.52-3.39,13-7.69,17.07l2.5,24.3s10.12,9.6,12.32,9.72,4.08-.38,6-.38,3.52.61,6.17.38,10.31-9.6,10.31-9.6l1.43-24.18-2.5-9.76S251.8,138.93,244.78,127.26Z"/><path class="cls-18" d="M259.13,155h-6.19a.31.31,0,0,1-.3-.29l-.58-16.43a.3.3,0,0,1,.29-.31.31.31,0,0,1,.31.29l.57,16.14h5.9a.3.3,0,0,1,.29.3A.29.29,0,0,1,259.13,155Z"/><path class="cls-13" d="M257,160.7a13,13,0,0,1-1.92-.12.3.3,0,1,1,.09-.59c.07,0,7.19,1,9.85-3.61a.3.3,0,0,1,.41-.12.31.31,0,0,1,.11.41C263.55,160.15,259.43,160.7,257,160.7Z"/><path class="cls-19" d="M221.71,237.76A17.56,17.56,0,0,1,211,234a.27.27,0,0,1-.12-.25l.72-14.48a.32.32,0,0,1,.1-.21.29.29,0,0,1,.23-.07,105.12,105.12,0,0,0,21.57.31.33.33,0,0,1,.23.09.25.25,0,0,1,.09.23l-1,14.77a.3.3,0,0,1-.16.24A22.88,22.88,0,0,1,221.71,237.76Zm-10.26-4.14c6.2,4.57,13,4.76,20.79.57l.94-14.26a105.61,105.61,0,0,1-21-.32Z"/><path class="cls-19" d="M183.87,258.24h-.07a.29.29,0,0,1-.23-.35l8.23-34.74a.3.3,0,0,1,.36-.22.29.29,0,0,1,.22.36L184.15,258A.29.29,0,0,1,183.87,258.24Z"/><path class="cls-19" d="M314.11,258.13a.3.3,0,0,1-.29-.24l-7-36.18a.3.3,0,0,1,.59-.12l7,36.19a.3.3,0,0,1-.24.35Z"/><path class="cls-19" d="M101.36,245.79c6.85-.6,16-7.89,21-14l-.34-.5c-4.89,6.07-14.1,13.43-20.88,13.92C101.24,245.41,101.3,245.6,101.36,245.79Z"/><path class="cls-19" d="M385.14,236.92c-4.05-3.43-8.13-8.43-8.32-12.79l-.54.62c.53,4.41,4.51,9.27,8.48,12.63a29.23,29.23,0,0,0,9.65,5.64c.08-.18.17-.37.25-.56A27.63,27.63,0,0,1,385.14,236.92Z"/><path class="cls-19" d="M229.36,188.41l12.11,14.2a.28.28,0,0,0,.22.1.31.31,0,0,0,.19-.06L256,191l12.22,11.66a.31.31,0,0,0,.41,0l14-12.93a.57.57,0,0,0,.07-.12l-.56-.31L268.39,202l-12.21-11.65a.29.29,0,0,0-.39,0L241.73,202,229.8,188l-.49.31A.28.28,0,0,0,229.36,188.41Z"/><rect class="cls-25" x="244.58" y="264.75" width="17.28" height="7.44"/><rect class="cls-23" x="246.3" y="266.19" width="13.94" height="4.52"/><path class="cls-18" d="M241.1,141.88s.31,5,5.26,5.26,4.28-5.66,3.77-7.34S241.1,141.88,241.1,141.88Z"/><path class="cls-23" d="M250.67,139.07c.51,2-4.06,2.59-7.35,3-1.91.23-2.57.44-2.77.21s.16-1.28,1.82-2.26C245.33,138.26,250.16,137,250.67,139.07Z"/><path class="cls-13" d="M246.14,147.44h0a4.36,4.36,0,0,1-4.1-2.3.3.3,0,0,1,.15-.4.29.29,0,0,1,.39.15,3.82,3.82,0,0,0,3.56,2h0a4.36,4.36,0,0,0,4-2.35.29.29,0,0,1,.39-.14.29.29,0,0,1,.14.39A4.89,4.89,0,0,1,246.14,147.44Z"/><path class="cls-18" d="M259.25,138.25s-1.26,8.08,4.7,8.21,4.92-7.54,4.92-7.54Z"/><path class="cls-13" d="M264.06,146.76h0a4.35,4.35,0,0,1-4.09-2.3.3.3,0,0,1,.54-.25,3.8,3.8,0,0,0,3.55,2h0a4.35,4.35,0,0,0,4-2.35.3.3,0,1,1,.54.26A4.92,4.92,0,0,1,264.06,146.76Z"/><path class="cls-23" d="M259.09,137.89c-.32,2.07,4.29,1.43,7.6,1.52,1.93.05,2.25.42,2.44.18s.06-1.36-1.68-2.18C264.33,135.94,259.41,135.79,259.09,137.89Z"/><path class="cls-18" d="M261.7,171.84c0,.68-1.83.39-4.09.39s-4.1.29-4.1-.39,1.84-1.89,4.1-1.89S261.7,171.15,261.7,171.84Z"/><path class="cls-13" d="M243.67,117.92c-1.19-5.37,5.21-9.15,9.75-9.49a12.14,12.14,0,0,1,11.46,6.38c.22.42.87,0,.64-.37a12.73,12.73,0,0,0-20.47-2.85,7.3,7.3,0,0,0-2.1,6.53c.1.46.82.27.72-.2Z"/><path class="cls-13" d="M238.6,116.31c-4.2.74-6.94,4.89-8,8.74a15.56,15.56,0,0,0,2.32,13.08c.27.39.92,0,.64-.38a14.83,14.83,0,0,1-2.31-12.25c1-3.7,3.52-7.76,7.56-8.47.47-.08.27-.8-.2-.72Z"/><path class="cls-18" d="M106.82,215.43a6.32,6.32,0,0,1,1.91-11.84.3.3,0,0,0,.26-.34l-.34.3-.72-.53a7.05,7.05,0,0,0-1.49,13C106.86,216.3,107.24,215.66,106.82,215.43Z"/><path class="cls-18" d="M92.89,216.2a22.17,22.17,0,0,1,10.39-5.26c.47-.09.27-.81-.19-.72a22.91,22.91,0,0,0-10.73,5.46c-.35.32.17.85.53.52Z"/><path class="cls-18" d="M73.16,197.12q8.39,2.7,16.52,6.06c.45.19.64-.53.2-.71-5.42-2.24-10.94-4.27-16.52-6.07-.46-.15-.65.57-.2.72Z"/><path class="cls-18" d="M86.18,213.66a33.85,33.85,0,0,1,10.61-15.44c.37-.3-.16-.83-.52-.52a34.44,34.44,0,0,0-10.81,15.77c-.15.45.57.65.72.19Z"/><path class="cls-18" d="M97,221.85c1.31.68,4,.43,4,1.23s-3.26.91-3.26.91Z"/><path class="cls-19" d="M382.06,223.35a1.76,1.76,0,0,1,1.22,0,1.87,1.87,0,0,1,1,1.11,2.29,2.29,0,0,1-.05,1.61,1.95,1.95,0,1,1-3.59-1.44h0a2.27,2.27,0,0,1,1.08-1.2A1.88,1.88,0,0,1,382.06,223.35Zm.65,3.51a1.62,1.62,0,0,0,1-1,1.69,1.69,0,0,0,.05-1.19A1.2,1.2,0,0,0,382,224a1.67,1.67,0,0,0-.79.88h0a1.47,1.47,0,0,0,.66,2A1.28,1.28,0,0,0,382.71,226.86ZM381,224.78h0Z"/><path class="cls-19" d="M114.55,231.94a2.13,2.13,0,0,1-2-1.71,2.23,2.23,0,0,1,.2-1.59,1.79,1.79,0,0,1,1.2-.94,1.83,1.83,0,0,1,1.49.31,2.26,2.26,0,0,1,.88,1.34h0a2.06,2.06,0,0,1-1.39,2.54A1.9,1.9,0,0,1,114.55,231.94Zm-.18-3.69a1.24,1.24,0,0,0-.27,0,1.23,1.23,0,0,0-.81.64,1.76,1.76,0,0,0-.14,1.18,1.36,1.36,0,1,0,2.61-.61,1.73,1.73,0,0,0-.65-1A1.3,1.3,0,0,0,114.37,228.25Z"/><path class="cls-18" d="M395,193.83a.33.33,0,0,0,.09.22A13.36,13.36,0,0,1,398,206.13a.37.37,0,0,0,.72.2,14.13,14.13,0,0,0-2.83-12.49l-.62.31Z"/><path class="cls-18" d="M399,201.88a12.91,12.91,0,0,1,9.27,5.68c.26.4.91,0,.64-.38a13.7,13.7,0,0,0-9.91-6c-.47,0-.47.69,0,.74Z"/><path class="cls-18" d="M409.62,190.29a61,61,0,0,1,6.64,17c.11.47.82.27.72-.19a62.09,62.09,0,0,0-6.71-17.18.37.37,0,0,0-.65.37Z"/><path class="cls-18" d="M416.52,197.36A55.9,55.9,0,0,1,432,194.69a.38.38,0,0,0,0-.75,56.46,56.46,0,0,0-15.63,2.7c-.46.15-.26.87.19.72Z"/><path class="cls-18" d="M403.47,214.26c-2.24.29-5.84-1-6.39-.24s2.86,3.61,5.21,2.8Z"/><path class="cls-18" d="M259.79,154.68c0,.57-1.6,1-3.58,1s-3.48-.36-3.48-.93,1.45-.27,3.43-.27S259.79,154.11,259.79,154.68Z"/><circle class="cls-13" cx="235.94" cy="268.47" r="1.06"/><path class="cls-13" d="M225.65,268.47a1.07,1.07,0,1,1-1.06-1.06A1.06,1.06,0,0,1,225.65,268.47Z"/><rect class="cls-25" x="252.37" y="268" width="8.14" height="1.02"/><path class="cls-12" d="M246.09,265.9a48.66,48.66,0,0,1,5,0c.48,0,.48-.72,0-.74a46,46,0,0,0-5,0c-.47,0-.47.77,0,.74Z"/><path class="cls-12" d="M253,266l3.89.1c.48,0,.47-.73,0-.74l-3.89-.11a.38.38,0,0,0,0,.75Z"/><path class="cls-12" d="M248.16,271.68a41.69,41.69,0,0,0,6.42-.07c.48,0,.48-.78,0-.74a41.69,41.69,0,0,1-6.42.07c-.48,0-.48.71,0,.74Z"/><path class="cls-19" d="M223.52,226.34a62.85,62.85,0,0,1-12-1.34.3.3,0,1,1,.11-.58c7.53,1.43,13.74,2,21.41.21a.28.28,0,0,1,.35.22.29.29,0,0,1-.22.36A42.74,42.74,0,0,1,223.52,226.34Z"/><path class="cls-19" d="M211.88,219.07a74.24,74.24,0,0,0,21.61.32A177.47,177.47,0,0,0,211.88,219.07Z"/><path class="cls-24" d="M254,204.11s2.25,4.51,3.85,0A5.17,5.17,0,0,0,254,204.11Z"/><path class="cls-19" d="M243.07,340.71a.29.29,0,0,1-.29-.29.3.3,0,0,1,.28-.31c1,0,98.14-4.45,115.46-26a10.42,10.42,0,0,0,2.48-8.57c-2.86-16.35-76.86-23.07-144.18-19.1-52.49,3.11-85.45,11.64-86,22.29a13.48,13.48,0,0,0,4.14,10.38c7,7.23,23.26,12.31,47,14.7a309.21,309.21,0,0,0,34.18,1.44.32.32,0,0,1,.31.29.31.31,0,0,1-.29.31,313.43,313.43,0,0,1-34.25-1.44c-24.2-2.44-40.14-7.45-47.35-14.89a14,14,0,0,1-4.32-10.83c.33-5.87,9.19-10.94,26.34-15.07,15.16-3.65,36-6.34,60.26-7.77,32.83-1.94,68.44-1.27,95.28,1.78,39.14,4.46,48.53,12.15,49.52,17.81a11,11,0,0,1-2.59,9c-7.35,9.15-29.1,16.34-64.64,21.37-26.43,3.75-51,4.84-51.26,4.85Z"/><path class="cls-14" d="M228.06,339.67c3.11,9,3.84,16.82.89,17.84s-8.46-5.13-11.56-14.17-2.59-17.24.36-18.25S225,330.63,228.06,339.67Z"/><path class="cls-17" d="M236.68,352.78c-.37.64-8.9,5.3-8.9,5.3s-14.29,2.31-18.19,5.39-4.07-22.39,1.75-23.17c7-.94,14.67-6,19.11-8.34C238.61,327.61,236.68,352.78,236.68,352.78Z"/><path class="cls-18" d="M218.88,338c5.45-1,10,16.54,8.9,20h0s1-.54,2.34-1.29a10.5,10.5,0,0,0,5-8.74c0-4.89-4-11.49-6.4-15.14C225.71,334.61,218.88,338,218.88,338Z"/><path class="cls-22" d="M221.29,324.8,218,325c8.85,1.11,14.33,29.89,9,33.23l16.1-1.3-2.92-34Z"/><path class="cls-19" d="M253.49,320.4h0l-95.83-10.3a.31.31,0,0,1-.27-.33.3.3,0,0,1,.33-.26l95.83,10.3a.3.3,0,0,1,0,.59Z"/><path class="cls-19" d="M243.26,357c1.84-4.63,1.17-10.54.44-14.19-1.64-8.26-5.54-16.22-9.46-19.88l-.66.22c3.88,3.44,7.91,11.57,9.54,19.77.72,3.66,1.39,9.62-.54,14.14Z"/><path class="cls-19" d="M217.94,325l.12-.06L327,309.24a.3.3,0,0,1,.34.26.29.29,0,0,1-.25.33L219.35,325.39A4.56,4.56,0,0,0,217.94,325Z"/><path class="cls-12" d="M211.34,340.3c-8.17,1.25-15.55-1.8-21.86,1.13-13.86,6.43-1.5,51,13.56,51.45s2.65-26.33,6.55-29.41a17.49,17.49,0,0,1,4.92-2.28C218.76,355.49,213.33,341.12,211.34,340.3Z"/><path class="cls-11" d="M189.48,341.43c-3.79,1.75-5.61,6.36-6,12.14a13.28,13.28,0,0,0,1.68.12,12.26,12.26,0,0,0,12.26-12.26c0-.44,0-.88-.07-1.31A17.25,17.25,0,0,0,189.48,341.43Z"/><path class="cls-11" d="M191.25,383.46c3.33,5.5,7.45,9.3,11.79,9.42,6.11.17,7.7-4.11,7.69-9.48C207.1,381.05,200.21,378.43,191.25,383.46Z"/><path class="cls-11" d="M205.76,340.6l-.91,0c4.45,6.75,4.78,15.1,4.62,23l.12-.11c.19-.14.4-.29.63-.43C210.35,355.32,209.94,347.22,205.76,340.6Z"/><polygon class="cls-24" points="255.77 247.07 257.03 216 265.1 238.54 255.77 247.07"/><rect class="cls-22" x="132.97" y="54.91" width="39.75" height="28.96" transform="translate(-14.91 63.58) rotate(-22.44)"/><path class="cls-26" d="M155.29,75.71a.27.27,0,0,0,.12,0,.3.3,0,0,0,.16-.17l10.28-26.69-.17-.4-.38.16L155.13,75,129.32,63.43l-.38.16.17.4,26.06,11.69Z"/><path class="cls-26" d="M140,90.36l.43-.18L149.79,73a.3.3,0,1,0-.52-.29L139.85,90Z"/><path class="cls-26" d="M157.32,69.4a.29.29,0,0,0,.2.37l18.78,5.6.44-.18-.15-.35-18.9-5.64A.31.31,0,0,0,157.32,69.4Z"/><circle class="cls-25" cx="165.87" cy="48.34" r="9.68"/><polygon class="cls-22" points="339.37 77.23 352.4 69.53 326.13 50.36 317.5 89.05 330.21 82.72 342.26 88.09 339.37 77.23"/><polygon class="cls-14" points="330.21 82.72 327.54 56.47 335.4 79.72 342.26 88.09 330.21 82.72"/><rect class="cls-22" x="355.44" y="56.12" width="28.87" height="51.75" rx="3.56" transform="translate(81.97 -164.25) rotate(28.04)"/><path class="cls-11" d="M360,57.43h21.42A2.64,2.64,0,0,1,384,60.07v43.45a0,0,0,0,1,0,0h-26.7a0,0,0,0,1,0,0V60.07A2.64,2.64,0,0,1,360,57.43Z" transform="translate(81.34 -164.81) rotate(28.04)"/><path class="cls-22" d="M384,61.15a2.34,2.34,0,1,1-4.12-2.2c.61-1.14.92.49,2.06,1.1S384.62,60,384,61.15Z"/><path class="cls-27" d="M358.23,93.43a2.93,2.93,0,1,1-1.21-4A2.93,2.93,0,0,1,358.23,93.43Z"/><path class="cls-28" d="M372.07,100.81a2.93,2.93,0,1,1-1.21-4A2.94,2.94,0,0,1,372.07,100.81Z"/><path class="cls-12" d="M362.56,97.83a2,2,0,0,1-1-.25,2.09,2.09,0,0,1-.86-2.82,2.06,2.06,0,0,1,1.23-1,2.08,2.08,0,0,1,2.45,3h0A2.08,2.08,0,0,1,362.56,97.83Zm0-3.58a1.29,1.29,0,0,0-.43.07,1.44,1.44,0,0,0-.88.72,1.49,1.49,0,1,0,2-.61A1.46,1.46,0,0,0,362.56,94.25Zm1.58,2.33h0Z"/><g class="cls-29"><path class="cls-30" d="M392.56,67.8a1.58,1.58,0,0,0-.65-2.12l-6.11-3.26L356.27,79.13l-8.2,15.41,1.49.79,40.57-23Z"/></g><g class="cls-31"><polygon class="cls-32" points="356.54 99.05 384.28 83.35 388.43 75.56 351.58 96.41 356.54 99.05"/></g><rect class="cls-11" x="405.22" y="77.63" width="34.44" height="49.49" transform="translate(52.03 -125.07) rotate(17.93)"/><rect class="cls-12" x="413.54" y="82.64" width="29.34" height="2.66" transform="translate(46.64 -127.74) rotate(17.93)"/><rect class="cls-12" x="418.51" y="86.72" width="16.77" height="2.66" transform="translate(47.84 -127.14) rotate(17.93)"/><path class="cls-12" d="M434,98.54l-.09,0L410.54,91a.3.3,0,1,1,.18-.57L434.12,98a.3.3,0,0,1,.19.38A.29.29,0,0,1,434,98.54Z"/><path class="cls-12" d="M433.29,100.83l-.09,0-23.41-7.57a.3.3,0,0,1,.19-.57l23.4,7.58a.3.3,0,0,1-.09.58Z"/><path class="cls-12" d="M432.55,103.12l-.09,0-23.41-7.57a.3.3,0,1,1,.19-.57l23.4,7.58a.29.29,0,0,1,.19.37A.3.3,0,0,1,432.55,103.12Z"/><path class="cls-12" d="M423.44,102.7h-.09l-15-4.87a.3.3,0,0,1,.19-.57l15,4.87a.29.29,0,0,1,.19.37A.29.29,0,0,1,423.44,102.7Z"/><path class="cls-12" d="M412.41,119.93h-.09l-10.1-3.27a.29.29,0,0,1-.19-.37.3.3,0,0,1,.37-.2l10.11,3.27a.3.3,0,0,1-.1.58Z"/><path class="cls-12" d="M408.06,121.06l-.09,0-6.49-2.1a.29.29,0,0,1-.19-.37.3.3,0,0,1,.37-.2l6.49,2.1a.29.29,0,0,1,.19.38A.3.3,0,0,1,408.06,121.06Z"/><rect class="cls-12" x="414.13" y="96.01" width="34.44" height="49.49" transform="translate(167.25 -241.04) rotate(38.23)"/><path class="cls-11" d="M429.56,151.15a.32.32,0,0,1-.18-.06l-27.05-21.32a.28.28,0,0,1-.12-.2.36.36,0,0,1,.07-.22L432.9,90.48a.3.3,0,0,1,.42,0l27.06,21.31a.31.31,0,0,1,.11.2.29.29,0,0,1-.07.22L429.8,151A.32.32,0,0,1,429.56,151.15Zm-26.63-21.66,26.59,20.94L459.77,112l-26.58-21Z"/><rect class="cls-11" x="428.48" y="104.16" width="29.34" height="2.66" transform="matrix(0.79, 0.62, -0.62, 0.79, 160.33, -251.61)"/><rect class="cls-11" x="432.1" y="107.54" width="16.77" height="2.66" transform="translate(161.85 -249.24) rotate(38.23)"/><path class="cls-11" d="M443.65,121.19a.3.3,0,0,1-.18-.06l-19.32-15.22a.29.29,0,0,1,0-.42.29.29,0,0,1,.41,0l19.33,15.22a.3.3,0,0,1,.05.42A.32.32,0,0,1,443.65,121.19Z"/><path class="cls-11" d="M442.16,123.08A.3.3,0,0,1,442,123L422.66,107.8a.29.29,0,0,1-.05-.42.3.3,0,0,1,.42,0l19.32,15.22a.3.3,0,0,1,0,.42A.32.32,0,0,1,442.16,123.08Z"/><path class="cls-11" d="M440.67,125a.3.3,0,0,1-.18-.06l-19.32-15.22a.3.3,0,1,1,.37-.47l19.32,15.22a.3.3,0,0,1,.05.42A.29.29,0,0,1,440.67,125Z"/><path class="cls-11" d="M432.27,121.42a.32.32,0,0,1-.18-.06l-12.41-9.78a.3.3,0,1,1,.37-.47l12.41,9.78a.3.3,0,0,1,.05.42A.32.32,0,0,1,432.27,121.42Z"/><path class="cls-11" d="M416,133.76a.3.3,0,0,1-.18-.06l-8.34-6.57a.3.3,0,1,1,.37-.47l8.34,6.57a.3.3,0,0,1,.05.42A.32.32,0,0,1,416,133.76Z"/><path class="cls-11" d="M411.48,133.3a.3.3,0,0,1-.18-.06L405.94,129a.3.3,0,1,1,.37-.47l5.36,4.22a.3.3,0,0,1,.05.42A.32.32,0,0,1,411.48,133.3Z"/><rect class="cls-12" x="205.24" y="11.41" width="29.37" height="42.21" transform="translate(0.41 67.7) rotate(-17.52)"/><path class="cls-11" d="M212.28,57.35a.32.32,0,0,1-.14,0,.34.34,0,0,1-.15-.18L199.29,16.9a.31.31,0,0,1,.19-.38l28-8.84a.3.3,0,0,1,.23,0,.34.34,0,0,1,.15.18l12.7,40.24a.31.31,0,0,1-.19.38l-28,8.84ZM200,17l12.52,39.68L239.91,48,227.39,8.34Z"/><rect class="cls-11" x="202.32" y="15.73" width="25.02" height="2.27" transform="translate(4.88 65.44) rotate(-17.52)"/><rect class="cls-11" x="208.78" y="19.23" width="14.3" height="2.27" transform="translate(3.88 65.93) rotate(-17.52)"/><path class="cls-11" d="M205.93,30.52a.31.31,0,0,1-.29-.21.3.3,0,0,1,.2-.38l20-6.31a.3.3,0,1,1,.18.57L206,30.5Z"/><path class="cls-11" d="M206.55,32.47a.3.3,0,0,1-.09-.58l20-6.31a.3.3,0,0,1,.18.57l-20,6.31Z"/><path class="cls-11" d="M207.16,34.43a.3.3,0,0,1-.09-.58l20-6.31a.29.29,0,0,1,.37.19.3.3,0,0,1-.19.37l-20,6.32Z"/><path class="cls-11" d="M207.78,36.39a.3.3,0,0,1-.09-.58l12.85-4.06a.3.3,0,0,1,.38.2.3.3,0,0,1-.2.37l-12.85,4.06Z"/><path class="cls-11" d="M212.86,52.48a.29.29,0,0,1-.28-.2.3.3,0,0,1,.19-.38l8.64-2.72a.3.3,0,0,1,.37.19.31.31,0,0,1-.19.38L213,52.47Z"/><path class="cls-11" d="M213.48,54.44a.29.29,0,0,1-.28-.21.29.29,0,0,1,.19-.37l5.55-1.75a.3.3,0,0,1,.37.19.31.31,0,0,1-.19.38l-5.55,1.75Z"/><circle class="cls-12" cx="255.18" cy="31.19" r="28.09" transform="translate(148.74 265.2) rotate(-72.51)"/><path class="cls-14" d="M255.18,59.57a28.39,28.39,0,1,1,28.39-28.38A28.41,28.41,0,0,1,255.18,59.57Zm0-56.17A27.79,27.79,0,1,0,283,31.19,27.82,27.82,0,0,0,255.18,3.4Z"/><path class="cls-14" d="M255.94,33.21a.58.58,0,0,1-.38-.13l-13.5-11.24A.59.59,0,0,1,242,21a.6.6,0,0,1,.84-.07L256,31.87l10-6.65a.59.59,0,0,1,.82.17.6.6,0,0,1-.16.83l-10.35,6.89A.58.58,0,0,1,255.94,33.21Z"/><circle class="cls-22" cx="255.94" cy="32.51" r="2.06"/><path class="cls-14" d="M255.18,11.22a.3.3,0,0,1-.29-.3V5.85a.3.3,0,0,1,.59,0v5.07A.3.3,0,0,1,255.18,11.22Z"/><path class="cls-14" d="M255.18,56.82a.29.29,0,0,1-.29-.3V51.46a.3.3,0,1,1,.59,0v5.06A.29.29,0,0,1,255.18,56.82Z"/><path class="cls-14" d="M280.52,31.49h-5.07a.31.31,0,0,1-.3-.3.3.3,0,0,1,.3-.3h5.07a.3.3,0,0,1,.3.3A.31.31,0,0,1,280.52,31.49Z"/><path class="cls-14" d="M234.92,31.49h-5.07a.31.31,0,0,1-.3-.3.3.3,0,0,1,.3-.3h5.07a.29.29,0,0,1,.29.3A.3.3,0,0,1,234.92,31.49Z"/><path class="cls-14" d="M271.31,15.36a.3.3,0,0,1-.21-.51l1.79-1.79a.31.31,0,0,1,.42,0,.32.32,0,0,1,0,.43l-1.79,1.79A.34.34,0,0,1,271.31,15.36Z"/><path class="cls-14" d="M237.27,49.4a.3.3,0,0,1-.21-.51l1.79-1.79a.3.3,0,0,1,.42.42l-1.79,1.79A.29.29,0,0,1,237.27,49.4Z"/><path class="cls-14" d="M273.1,49.4a.27.27,0,0,1-.21-.09l-1.79-1.79a.3.3,0,0,1,.42-.42l1.79,1.79a.31.31,0,0,1,0,.42A.3.3,0,0,1,273.1,49.4Z"/><path class="cls-14" d="M239.06,15.36a.32.32,0,0,1-.21-.08l-1.79-1.79a.3.3,0,0,1,0-.43.31.31,0,0,1,.42,0l1.79,1.79a.3.3,0,0,1,0,.43A.32.32,0,0,1,239.06,15.36Z"/><path class="cls-14" d="M265.52,54.61a.29.29,0,0,1-.27-.17l-1-2.31a.3.3,0,0,1,.15-.4.29.29,0,0,1,.39.15l1,2.31a.3.3,0,0,1-.15.4A.25.25,0,0,1,265.52,54.61Z"/><path class="cls-14" d="M245.88,10.67a.29.29,0,0,1-.27-.18l-1-2.31a.29.29,0,0,1,.15-.39.3.3,0,0,1,.4.15l1,2.31a.29.29,0,0,1-.15.39A.27.27,0,0,1,245.88,10.67Z"/><path class="cls-14" d="M278.85,40.53l-.11,0-2.36-.91a.3.3,0,0,1-.18-.38.3.3,0,0,1,.39-.17L279,40a.31.31,0,0,1,.18.39A.3.3,0,0,1,278.85,40.53Z"/><path class="cls-14" d="M233.88,23.35l-.1,0-2.37-.91a.3.3,0,0,1-.17-.38.29.29,0,0,1,.38-.17l2.37.9a.3.3,0,0,1,.17.39A.31.31,0,0,1,233.88,23.35Z"/><path class="cls-14" d="M276,22.18a.3.3,0,0,1-.27-.18.29.29,0,0,1,.15-.39l2.31-1a.29.29,0,0,1,.39.15.29.29,0,0,1-.15.39l-2.31,1A.27.27,0,0,1,276,22.18Z"/><path class="cls-14" d="M232.06,41.83a.31.31,0,0,1-.28-.18.3.3,0,0,1,.15-.39l2.32-1a.29.29,0,0,1,.39.15.3.3,0,0,1-.15.4l-2.31,1Z"/><path class="cls-14" d="M263.32,10.19l-.1,0a.31.31,0,0,1-.18-.39L264,7.42a.28.28,0,0,1,.38-.17.28.28,0,0,1,.17.38L263.6,10A.32.32,0,0,1,263.32,10.19Z"/><path class="cls-14" d="M246.14,55.15l-.11,0a.3.3,0,0,1-.17-.38l.91-2.37a.29.29,0,0,1,.38-.17.3.3,0,0,1,.17.38l-.9,2.37A.3.3,0,0,1,246.14,55.15Z"/><circle class="cls-28" cx="316.15" cy="70.04" r="9.68" transform="translate(173.02 360.51) rotate(-76.26)"/><path class="cls-12" d="M317,74.53a1.47,1.47,0,0,1-.36,0L310.54,73a1.49,1.49,0,0,1,.71-2.89l4.7,1.15,1.69-6.88a1.48,1.48,0,0,1,1.8-1.09,1.5,1.5,0,0,1,1.09,1.8l-2,8.33A1.47,1.47,0,0,1,317,74.53Z"/><path class="cls-12" d="M168.15,52.91a1.57,1.57,0,1,1-1.77-1.35A1.57,1.57,0,0,1,168.15,52.91Z"/><polygon class="cls-12" points="167.33 49.96 165.04 50.27 163.44 41.48 166.56 41.06 167.33 49.96"/><path class="cls-17" d="M18.17,172.27a2.87,2.87,0,0,1-1.41-.36L1.54,163.6a3,3,0,0,1-1.18-4l.7-1.27a3,3,0,0,1,4-1.18l13.62,7.44a.3.3,0,0,1,.12.41.31.31,0,0,1-.41.12L4.8,157.64A2.38,2.38,0,0,0,3,157.45a2.35,2.35,0,0,0-1.41,1.14l-.69,1.27a2.36,2.36,0,0,0,.94,3.21L17,171.39a2.38,2.38,0,0,0,3.22-.95l.36-.66a2.37,2.37,0,0,0-.94-3.22l-7.77-4.25a2.37,2.37,0,0,0-2.28,4.16l6.19,3.38a.31.31,0,0,1,.12.41.3.3,0,0,1-.41.11L9.35,167a3,3,0,1,1,2.84-5.2L20,166a3,3,0,0,1,1.18,4l-.37.67A3,3,0,0,1,18.17,172.27Z"/><path class="cls-13" d="M35.19,158.38a4.09,4.09,0,0,1-.85-.09,3.86,3.86,0,0,1-2.42-1.7L19.49,137a3.88,3.88,0,0,1,1.19-5.34l1.63-1a3.88,3.88,0,0,1,5.34,1.18l11.13,17.52a.31.31,0,0,1-.09.41.31.31,0,0,1-.42-.09L27.15,132.16a3.29,3.29,0,0,0-4.52-1l-1.63,1a3.28,3.28,0,0,0-1,4.51l12.43,19.56a3.28,3.28,0,0,0,4.52,1l.86-.55a3.27,3.27,0,0,0,1-4.51l-6.35-10a3.28,3.28,0,0,0-2.05-1.43,3.27,3.27,0,0,0-3.47,4.94l5.06,8a.3.3,0,0,1-.09.41.31.31,0,0,1-.42-.09l-5.05-7.95A3.86,3.86,0,1,1,33,141.9l6.35,10a3.86,3.86,0,0,1-1.18,5.33l-.86.55A3.83,3.83,0,0,1,35.19,158.38Z"/><path class="cls-13" d="M447.69,186.06a2.43,2.43,0,0,1-.7-.11l-.58-.17a2.4,2.4,0,0,1-1.6-3l4-13.13a2.41,2.41,0,0,1,3-1.61l1.09.33a2.41,2.41,0,0,1,1.61,3l-3.55,11.75a.3.3,0,0,1-.37.2.29.29,0,0,1-.2-.19l-.37,1.21a2.35,2.35,0,0,1-1.17,1.43A2.38,2.38,0,0,1,447.69,186.06Zm3.39-17.53a1.75,1.75,0,0,0-.86.22,1.83,1.83,0,0,0-.88,1.07l-4,13.13a1.81,1.81,0,0,0,1.21,2.26l.57.17a1.79,1.79,0,0,0,1.38-.14,1.77,1.77,0,0,0,.88-1.07l2-6.71a1.81,1.81,0,0,0-3.47-1.05l-1.61,5.34a.3.3,0,0,1-.37.2.29.29,0,0,1-.2-.37l1.61-5.34a2.41,2.41,0,0,1,4.7.9l1.8-5.94a1.81,1.81,0,0,0-1.21-2.26l-1.1-.33A1.88,1.88,0,0,0,451.08,168.53Z"/><path class="cls-17" d="M461.88,197.94h0a3.07,3.07,0,0,1-2.19-.94l-.56-.57a3.11,3.11,0,0,1,.05-4.41l13.13-12.8a3.17,3.17,0,0,1,2.22-.89,3.12,3.12,0,0,1,2.19.94l1.07,1.1a3.07,3.07,0,0,1,.89,2.22,3.12,3.12,0,0,1-.94,2.19l-11.76,11.46a.3.3,0,0,1-.41-.43l11.75-11.46a2.52,2.52,0,0,0,.76-1.77,2.49,2.49,0,0,0-.71-1.79l-1.07-1.1a2.54,2.54,0,0,0-3.57-.05l-13.13,12.8a2.52,2.52,0,0,0-.76,1.78,2.49,2.49,0,0,0,.71,1.79l.57.58a2.52,2.52,0,0,0,1.77.76,2.59,2.59,0,0,0,1.79-.72l6.71-6.54a2.49,2.49,0,0,0,.77-1.77,2.57,2.57,0,0,0-.72-1.8,2.52,2.52,0,0,0-1.78-.76,2.56,2.56,0,0,0-1.79.72l-5.34,5.2a.29.29,0,0,1-.42,0,.3.3,0,0,1,0-.42l5.33-5.21a3.18,3.18,0,0,1,2.22-.88,3.12,3.12,0,0,1,2.14,5.35l-6.71,6.54A3.17,3.17,0,0,1,461.88,197.94Z"/><path class="cls-22" d="M276.15,97a2.24,2.24,0,0,1-1.68-.76l-8.27-9.46a2.24,2.24,0,0,1,.21-3.15l.79-.69a2.23,2.23,0,0,1,1.62-.54,2.19,2.19,0,0,1,1.53.75l7.4,8.47a.3.3,0,0,1,0,.42.4.4,0,0,1-.21.07l.73.83a2.23,2.23,0,0,1-.22,3.14l-.41.37A2.22,2.22,0,0,1,276.15,97Zm-2-2,.76.87a1.64,1.64,0,0,0,2.31.16l.41-.37a1.63,1.63,0,0,0,.16-2.3l-4.23-4.83a1.63,1.63,0,1,0-2.46,2.15l3.36,3.84a.3.3,0,0,1-.31.48Zm-5.49-12a1.61,1.61,0,0,0-1.07.4l-.79.69a1.64,1.64,0,0,0-.16,2.31l3.76,4.29a2.23,2.23,0,0,1,3.11-3l-3.62-4.13a1.6,1.6,0,0,0-1.12-.56Z"/><path class="cls-17" d="M167.68,117.87a.3.3,0,0,1-.21-.09l-5-5a.32.32,0,0,1-.08-.21.3.3,0,0,1,.08-.21l5-5a.29.29,0,0,1,.42,0l5,5a.29.29,0,0,1,0,.42l-5,5A.27.27,0,0,1,167.68,117.87Zm-4.58-5.3,4.58,4.58,4.58-4.58L167.68,108Z"/><path class="cls-17" d="M391.24,114.77a.27.27,0,0,1-.21-.09l-2.28-2.28a.29.29,0,0,1,0-.42l2.28-2.27a.29.29,0,0,1,.42,0l2.27,2.27a.29.29,0,0,1,0,.42l-2.27,2.28A.3.3,0,0,1,391.24,114.77Zm-1.86-2.58,1.86,1.86,1.85-1.86-1.85-1.85Z"/><path class="cls-24" d="M318.89,123.62a.34.34,0,0,1-.21-.08l-4.35-4.36a.29.29,0,0,1,0-.42l4.35-4.35a.29.29,0,0,1,.42,0l4.36,4.35a.31.31,0,0,1,0,.42l-4.36,4.36A.3.3,0,0,1,318.89,123.62ZM315,119l3.93,3.93,3.93-3.93L318.89,115Z"/><path class="cls-17" d="M23.45,58.21a.34.34,0,0,1-.21-.08l-4.48-4.49a.3.3,0,1,1,.42-.42l4.48,4.49a.29.29,0,0,1,0,.42A.3.3,0,0,1,23.45,58.21Z"/><path class="cls-17" d="M19,58.21a.32.32,0,0,1-.21-.08.29.29,0,0,1,0-.42l4.48-4.49a.3.3,0,0,1,.42.42l-4.48,4.49A.32.32,0,0,1,19,58.21Z"/><path class="cls-17" d="M53.3,267.29a.27.27,0,0,1-.21-.09l-4.49-4.48a.3.3,0,1,1,.42-.42l4.49,4.48a.31.31,0,0,1,0,.42A.3.3,0,0,1,53.3,267.29Z"/><path class="cls-17" d="M48.81,267.29a.3.3,0,0,1-.21-.09.29.29,0,0,1,0-.42l4.49-4.48a.29.29,0,0,1,.42,0,.31.31,0,0,1,0,.42L49,267.2A.29.29,0,0,1,48.81,267.29Z"/><path class="cls-17" d="M324.91,10.6a.29.29,0,0,1-.21-.09L320.21,6a.31.31,0,0,1,0-.42.29.29,0,0,1,.42,0l4.49,4.48a.29.29,0,0,1,0,.42A.3.3,0,0,1,324.91,10.6Z"/><path class="cls-17" d="M320.42,10.6a.3.3,0,0,1-.21-.09.31.31,0,0,1,0-.42l4.49-4.48a.3.3,0,0,1,.42.42l-4.49,4.48A.27.27,0,0,1,320.42,10.6Z"/><path class="cls-15" d="M219.53,121.86a.3.3,0,0,1-.21-.09l-9-9a.3.3,0,0,1,.42-.42l9,9a.29.29,0,0,1,0,.42A.27.27,0,0,1,219.53,121.86Z"/><path class="cls-15" d="M210.54,121.86a.3.3,0,0,1-.21-.09.29.29,0,0,1,0-.42l9-9a.3.3,0,1,1,.42.42l-9,9A.29.29,0,0,1,210.54,121.86Z"/><path class="cls-17" d="M470,240.53a.3.3,0,0,1-.21-.09l-4.95-4.95a.3.3,0,1,1,.42-.42l4.95,5a.29.29,0,0,1,0,.42A.27.27,0,0,1,470,240.53Z"/><path class="cls-17" d="M465,240.53a.3.3,0,0,1-.21-.51l4.95-5a.3.3,0,1,1,.42.42l-4.95,4.95A.29.29,0,0,1,465,240.53Z"/><path class="cls-17" d="M395,162.48a4,4,0,1,1,4-4A4,4,0,0,1,395,162.48Zm0-7.44a3.43,3.43,0,1,0,3.42,3.42A3.43,3.43,0,0,0,395,155Z"/><path class="cls-13" d="M129.58,165.17a8.21,8.21,0,1,1,8.2-8.21A8.22,8.22,0,0,1,129.58,165.17Zm0-15.83a7.62,7.62,0,1,0,7.61,7.62A7.63,7.63,0,0,0,129.58,149.34Z"/><path class="cls-17" d="M431.59,270.72a8.21,8.21,0,1,1,8.21-8.21A8.23,8.23,0,0,1,431.59,270.72Zm0-15.83a7.62,7.62,0,1,0,7.61,7.62A7.63,7.63,0,0,0,431.59,254.89Z"/><path class="cls-26" d="M98.26,123l-57-26.27-16.53,13.8a4.42,4.42,0,0,0-.54,5.72l24.07,36.31a1.71,1.71,0,0,0,1.34.81l37.14,1.32,51.39-42.92a4.53,4.53,0,0,0,1.53-3.07Z"/><path class="cls-22" d="M100.72,109,76.14,72a2.82,2.82,0,0,0-4.2-.88L25,110.24a3.69,3.69,0,0,0-.45,4.77l24.18,36.46a1.3,1.3,0,0,0,1,.63l37,.71,52.83-44.13Z"/><polygon class="cls-12" points="97.21 108.24 49.56 148.03 26.16 112.74 73.81 72.95 97.21 108.24"/><path class="cls-26" d="M102.71,135.27h0l-9.07-.17a.32.32,0,0,1-.28-.2.31.31,0,0,1,.09-.33l12.42-10.38a.33.33,0,0,1,.19-.06l9.38-.09a.28.28,0,0,1,.28.2.28.28,0,0,1-.09.33L102.91,135.2A.31.31,0,0,1,102.71,135.27Zm-8.26-.75,8.16.15,12-10-8.44.07Z"/><path class="cls-26" d="M71.91,150.47h0l-18.52-.22a.3.3,0,0,1-.28-.19.31.31,0,0,1,.09-.33l46.26-38.65a.34.34,0,0,1,.19-.07l18.93-.12h0a.29.29,0,0,1,.28.2.28.28,0,0,1-.09.33l-46.67,39A.31.31,0,0,1,71.91,150.47Zm-17.71-.8,17.61.21,46-38.38-18,.11Z"/><path class="cls-26" d="M55.77,150.28a.29.29,0,0,1-.23-.1.3.3,0,0,1,0-.42L102,111a.29.29,0,0,1,.42,0,.31.31,0,0,1,0,.42L56,150.21A.3.3,0,0,1,55.77,150.28Z"/><path class="cls-26" d="M59.21,150.36a.31.31,0,0,1-.23-.11.3.3,0,0,1,0-.42l46.41-38.77a.31.31,0,0,1,.42,0,.29.29,0,0,1,0,.42L59.4,150.29A.26.26,0,0,1,59.21,150.36Z"/><path class="cls-26" d="M62.78,150.26a.31.31,0,0,1-.23-.11.3.3,0,0,1,0-.42L109,111a.3.3,0,0,1,.42,0,.29.29,0,0,1,0,.42L63,150.19A.32.32,0,0,1,62.78,150.26Z"/><path class="cls-26" d="M66,150.25a.29.29,0,0,1-.23-.1.3.3,0,0,1,0-.42L112.25,111a.29.29,0,0,1,.42,0,.31.31,0,0,1,0,.42L66.22,150.18A.3.3,0,0,1,66,150.25Z"/><path class="cls-26" d="M69.24,150.28a.3.3,0,0,1-.23-.11.29.29,0,0,1,0-.42L115.46,111a.3.3,0,1,1,.38.46L69.43,150.21A.37.37,0,0,1,69.24,150.28Z"/><path class="cls-26" d="M74.54,148.28h0l-16-.35a.3.3,0,0,1-.29-.3.28.28,0,0,1,.31-.29l16,.34a.29.29,0,0,1,.29.3A.29.29,0,0,1,74.54,148.28Z"/><path class="cls-26" d="M77.73,145.61h0l-16-.34a.29.29,0,0,1-.29-.3.27.27,0,0,1,.3-.29l16,.34a.3.3,0,0,1,.29.3A.29.29,0,0,1,77.73,145.61Z"/><path class="cls-26" d="M80.92,143h0l-16-.34a.3.3,0,0,1-.29-.3c0-.17.14-.33.31-.3l16,.35a.29.29,0,0,1,.29.3A.29.29,0,0,1,80.92,143Z"/><path class="cls-26" d="M84.1,140.29h0l-16-.34a.3.3,0,0,1-.29-.31.28.28,0,0,1,.3-.29l16,.35a.3.3,0,1,1,0,.59Z"/><path class="cls-26" d="M87.29,137.63h0l-16-.34A.29.29,0,0,1,71,137a.28.28,0,0,1,.3-.29l16,.34a.3.3,0,0,1,0,.6Z"/><path class="cls-26" d="M90.48,135h0l-16-.34a.31.31,0,0,1-.29-.31.28.28,0,0,1,.31-.29l16,.34a.29.29,0,0,1,.29.31A.29.29,0,0,1,90.48,135Z"/><path class="cls-26" d="M93.66,132.31h0l-16-.35a.28.28,0,0,1-.29-.3.28.28,0,0,1,.3-.29l16,.34A.31.31,0,0,1,94,132,.3.3,0,0,1,93.66,132.31Z"/><path class="cls-26" d="M96.85,129.65h0l-16-.35a.3.3,0,0,1-.3-.3.29.29,0,0,1,.31-.29l16,.34a.3.3,0,0,1,.3.3A.31.31,0,0,1,96.85,129.65Z"/><path class="cls-26" d="M100,127h0l-16-.34a.3.3,0,0,1-.29-.3c0-.17.14-.33.3-.29l16,.34a.3.3,0,0,1,.29.3A.29.29,0,0,1,100,127Z"/><path class="cls-26" d="M103.22,124.32h0l-16-.34a.29.29,0,0,1-.29-.3c0-.17.14-.33.3-.3l16,.35a.3.3,0,0,1,.29.3A.31.31,0,0,1,103.22,124.32Z"/><path class="cls-26" d="M106.41,121.66h0l-16-.34a.3.3,0,0,1-.29-.31.29.29,0,0,1,.31-.29l16,.35a.29.29,0,0,1,.29.3A.29.29,0,0,1,106.41,121.66Z"/><path class="cls-26" d="M109.59,119h0l-16-.34a.3.3,0,0,1,0-.6l16,.35a.29.29,0,0,1,.29.3A.3.3,0,0,1,109.59,119Z"/><path class="cls-26" d="M112.78,116.34h0l-16-.34a.31.31,0,0,1-.3-.31.32.32,0,0,1,.31-.29l16,.34a.31.31,0,0,1,.3.31A.31.31,0,0,1,112.78,116.34Z"/><path class="cls-26" d="M116,113.68h0l-16-.35a.3.3,0,0,1-.29-.3.31.31,0,0,1,.3-.29l16,.34a.3.3,0,0,1,0,.6Z"/><path class="cls-26" d="M50.84,150.32a.3.3,0,0,1-.19-.53l48-40.08a.29.29,0,1,1,.38.45L51,150.25A.28.28,0,0,1,50.84,150.32Z"/><path class="cls-11" d="M79.56,94l-9,7.51a2.5,2.5,0,0,0-.31,3.25l3.52,5.31a1.91,1.91,0,0,0,2.86.6l9-7.5a2.51,2.51,0,0,0,.31-3.26l-3.52-5.31A1.93,1.93,0,0,0,79.56,94Z"/><path class="cls-13" d="M86.38,101.67l-6.57-.31,1.77-7.49a1.74,1.74,0,0,0-.56-.21l-2.3,9.72-8.88-.45a2.32,2.32,0,0,0,0,.59l6.87.35-1.63,7.18a1.75,1.75,0,0,0,.6,0l1.63-7.2,1.64.09h0a.3.3,0,0,0,.29-.23l.43-1.81,6.58.31A2.81,2.81,0,0,0,86.38,101.67Z"/><path class="cls-11" d="M77.93,117.36,65.42,127.82a1.87,1.87,0,0,0-.23,2.43,1.43,1.43,0,0,0,2.14.45l12.52-10.45a1.89,1.89,0,0,0,.23-2.44A1.46,1.46,0,0,0,77.93,117.36Z"/><path class="cls-11" d="M72.85,75.58,28.33,112.77a1,1,0,0,0-.12,1.27.75.75,0,0,0,1.12.24L73.85,77.09A1,1,0,0,0,74,75.81.75.75,0,0,0,72.85,75.58Z"/><polygon class="cls-17" points="67.65 119.55 47.24 136.6 36.24 120.01 56.65 102.96 67.65 119.55"/><path class="cls-11" d="M55.21,102.56,36.13,118.5a.89.89,0,0,0-.12,1.16l.23.35L56.65,103l-.08-.12A.91.91,0,0,0,55.21,102.56Z"/><path class="cls-33" d="M36.56,118.94a.28.28,0,0,1,0,.36.21.21,0,0,1-.31-.07.27.27,0,0,1,0-.35A.22.22,0,0,1,36.56,118.94Z"/><path class="cls-34" d="M37.18,118.42a.27.27,0,0,1,0,.36.21.21,0,0,1-.31-.07.27.27,0,0,1,0-.35A.21.21,0,0,1,37.18,118.42Z"/><path class="cls-35" d="M37.8,117.9a.28.28,0,0,1,0,.36.2.2,0,0,1-.31-.07.27.27,0,0,1,0-.35A.21.21,0,0,1,37.8,117.9Z"/><path class="cls-11" d="M52.21,132.75a.29.29,0,0,1-.25-.13l-11.21-16.9a.3.3,0,0,1,.5-.33l11.21,16.9a.29.29,0,0,1-.09.41A.25.25,0,0,1,52.21,132.75Z"/><g class="cls-36"><polygon class="cls-37" points="66.9 78.72 53.49 89.92 48.51 146.44 49.56 148.03 61.68 137.92 66.9 78.72"/></g><g class="cls-38"><polygon class="cls-39" points="68.78 131.98 73.96 73.18 73.81 72.95 69.53 76.52 64.31 135.72 68.78 131.98"/></g><rect class="cls-22" x="405.7" y="138.1" width="33.27" height="24.24" transform="translate(49.38 -98.46) rotate(14.12)"/><path class="cls-26" d="M421.09,155.07l-11.54-20.56-.4-.1-.1.42L418,150.74l-14.64,6.81-.1.37.46.11,14.57-6.77,2.45,4.37a.3.3,0,0,0,.19.14H421a.29.29,0,0,0,.16,0l4.26-2.7,9.65,12.87.45.12.1-.37-9.7-12.94,15.41-9.78.11-.42-.4-.1Z"/></g></g></svg>